STARTFONT 2.1
FONT -FontForge-Saira-Bold-I-Normal--78-560-100-100-P-418-ISO10646-1
SIZE 56 100 100
FONTBOUNDINGBOX 92 79 -8 -16
COMMENT "Generated by fontforge, http://fontforge.sourceforge.net"
COMMENT "Copyright 2020 The Saira Project Authors (https://github.com/Omnibus-Type/Saira)"
STARTPROPERTIES 40
FOUNDRY "FontForge"
FAMILY_NAME "Saira"
WEIGHT_NAME "Bold"
SLANT "I"
SETWIDTH_NAME "Normal"
ADD_STYLE_NAME ""
PIXEL_SIZE 78
POINT_SIZE 560
RESOLUTION_X 100
RESOLUTION_Y 100
SPACING "P"
AVERAGE_WIDTH 418
CHARSET_REGISTRY "ISO10646"
CHARSET_ENCODING "1"
FONTNAME_REGISTRY ""
CHARSET_COLLECTIONS "ISO10646-1"
FONT_NAME "Saira-BoldItalic"
FACE_NAME "Saira Bold Italic"
COPYRIGHT "Copyright 2020 The Saira Project Authors (https://github.com/Omnibus-Type/Saira)"
FONT_VERSION "1.101"
FONT_ASCENT 62
FONT_DESCENT 16
UNDERLINE_POSITION -14
UNDERLINE_THICKNESS 3
X_HEIGHT 39
CAP_HEIGHT 53
RAW_ASCENT 800
RAW_DESCENT 200
ITALIC_ANGLE 4992
NORM_SPACE 20
RELATIVE_WEIGHT 70
RELATIVE_SETWIDTH 50
SUPERSCRIPT_X 5
SUPERSCRIPT_Y 27
SUPERSCRIPT_SIZE 46
SUBSCRIPT_X -1
SUBSCRIPT_Y 5
SUBSCRIPT_SIZE 46
AVG_LOWERCASE_WIDTH 423
AVG_UPPERCASE_WIDTH 516
ENDPROPERTIES
CHARS 127
STARTCHAR space
ENCODING 32
SWIDTH 258 0
DWIDTH 20 0
BBX 1 1 0 0
BITMAP
00
ENDCHAR
STARTCHAR exclam
ENCODING 33
SWIDTH 331 0
DWIDTH 26 0
BBX 25 54 2 0
BITMAP
001FFF80
001FFF80
001FFF80
001FFF80
003FFF80
003FFF00
003FFF00
003FFF00
003FFF00
003FFE00
007FFE00
007FFE00
007FFC00
007FFC00
007FFC00
007FFC00
007FF800
00FFF800
00FFF800
00FFF000
00FFF000
00FFF000
00FFF000
00FFE000
01FFE000
01FFE000
01FFC000
01FFC000
01FFC000
01FF8000
01FF8000
01FF8000
03FF0000
03FF0000
03FF0000
03FF0000
00000000
00000000
00000000
00000000
00000000
00000000
00000000
1FFF0000
3FFF0000
3FFE0000
3FFE0000
3FFE0000
7FFE0000
7FFC0000
7FFC0000
7FFC0000
7FFC0000
FFFC0000
ENDCHAR
STARTCHAR quotedbl
ENCODING 34
SWIDTH 474 0
DWIDTH 37 0
BBX 30 20 9 34
BITMAP
1FFC3FFC
1FFC3FF8
1FFC3FF8
3FF83FF8
3FF83FF8
3FF87FF0
3FF87FF0
3FF07FF0
3FF07FF0
7FF07FE0
7FE07FE0
7FE07FE0
7FE07FC0
7FE0FFC0
7FC0FFC0
7FC0FF80
7FC0FF80
FF80FF80
FF80FF80
FF80FF00
ENDCHAR
STARTCHAR numbersign
ENCODING 35
SWIDTH 726 0
DWIDTH 57 0
BBX 52 54 3 0
BITMAP
0000007F801FF0
000000FF801FE0
000000FF003FE0
000001FF003FC0
000001FE007FC0
000003FE007F80
000003FE00FF80
000007FC00FF00
000007FC01FF00
000007F801FE00
00000FF803FE00
00000FF003FC00
00001FF007FC00
00001FE007F800
00FFFFFFFFFFF0
00FFFFFFFFFFF0
00FFFFFFFFFFF0
00FFFFFFFFFFF0
01FFFFFFFFFFE0
01FFFFFFFFFFE0
01FFFFFFFFFFE0
01FFFFFFFFFFE0
0001FE007FC000
0003FE007F8000
0003FC00FF8000
0007FC00FF0000
0007F801FF0000
000FF801FE0000
000FF003FE0000
000FF003FC0000
001FF007FC0000
001FE007F80000
003FE00FF80000
7FFFFFFFFFF800
7FFFFFFFFFF800
7FFFFFFFFFF800
7FFFFFFFFFF800
FFFFFFFFFFF000
FFFFFFFFFFF000
FFFFFFFFFFF000
01FE007F800000
03FE00FF800000
03FC00FF000000
07FC00FF000000
07F801FF000000
0FF801FE000000
0FF003FE000000
1FF003FC000000
1FF007FC000000
3FE007F8000000
3FE00FF8000000
3FC00FF0000000
7FC01FF0000000
FF801FF0000000
ENDCHAR
STARTCHAR dollar
ENCODING 36
SWIDTH 538 0
DWIDTH 42 0
BBX 39 55 3 -1
BITMAP
000007FC00
000007FC00
00000FFC00
00000FF800
00000FF800
00000FF800
0001FFFFF0
001FFFFFFE
003FFFFFFC
00FFFFFFFC
00FFFFFFFC
01FFFFFFFC
03FFFFFFF8
03FFFFFFF8
03FFFFFFF8
07FFFFE7F8
07FFFFE000
07FFFFC000
0FFFFFC000
0FFF7FC000
0FFF7FC000
0FFFFFC000
0FFFFFC000
0FFFFFFE00
0FFFFFFF80
0FFFFFFFC0
0FFFFFFFE0
07FFFFFFE0
07FFFFFFE0
03FFFFFFE0
00FFFFFFE0
000FFFFFE0
0003FFFFE0
0003FFFFE0
0003FFFFE0
0007FFFFE0
0007FFFFC0
0007FFFFC0
4007FFFFC0
7FFFFFFFC0
7FFFFFFF80
7FFFFFFF80
7FFFFFFF00
FFFFFFFF00
FFFFFFFE00
FFFFFFFC00
FFFFFFF800
FFFFFFE000
01FFFC0000
003FF00000
003FE00000
003FE00000
003FE00000
003FE00000
007FC00000
ENDCHAR
STARTCHAR percent
ENCODING 37
SWIDTH 885 0
DWIDTH 69 0
BBX 61 58 6 -2
BITMAP
001FE00000000000
01FFFE0000000000
03FFFF0000003FC0
07FFFF8000007F80
0FFFFF800000FF00
0FFFFFC00001FE00
1FF03FC00003FC00
1FC03FC00007F800
1FC03FC0000FF000
3FC03FC0001FE000
3F803F80001FC000
3F803F80003FC000
3F803F80007F8000
7F803F8000FF0000
7F007F8001FE0000
7F007F8003FC0000
7F007F0007F80000
FF007F000FF00000
FF007F000FE00000
FE00FF001FE00000
FE00FE003FC00000
FE00FE007F800000
FE01FE00FF000000
FE01FC01FE000000
FF87FC03FC000000
FFFFFC07F8000000
FFFFF807F0000000
FFFFF00FF0000000
7FFFE01FE00FFF00
1FFFC03FC07FFFE0
0000007F80FFFFF0
000000FF01FFFFF0
000001FE01FFFFF0
000003FC03FFFFF8
000003F803FC07F8
000007F803F807F8
00000FF007F807F8
00001FE007F007F0
00003FC007F007F0
00007F8007F007F0
0000FF000FF007F0
0001FE000FE00FF0
0001FC000FE00FE0
0003FC000FE00FE0
0007F8001FE00FE0
000FF0001FE01FE0
001FE0001FC01FE0
003FC0001FC01FC0
007F80001FC01FC0
00FF00001FC03FC0
00FF00001FC03FC0
01FE00001FC07F80
03FC00001FFFFF80
07F800001FFFFF00
0FF000001FFFFF00
1FE000000FFFFE00
0000000007FFFC00
0000000001FFE000
ENDCHAR
STARTCHAR ampersand
ENCODING 38
SWIDTH 749 0
DWIDTH 58 0
BBX 56 55 3 -1
BITMAP
000003FFFFF800
00003FFFFFFFF0
0001FFFFFFFFE0
0007FFFFFFFFE0
000FFFFFFFFFE0
003FFFFFFFFFE0
007FFFFFFFFFE0
007FFFFFFFFFC0
00FFFFFFFFFFC0
01FFFFFF3FFFC0
01FFFC00000040
01FFF800000000
03FFF000000000
03FFE000000000
03FFE000000000
03FFE000000000
03FFC000000000
07FFC000000000
03FFC000000000
03FFC000000000
03FFE000000000
03FFF000000000
01FFFFF81FFFFF
01FFFFF81FFFFF
00FFFFF83FFFFE
003FFFF03FFFFE
0007FFF03FFFFE
003FFFF03FFFFE
01FFFFF03FFFFC
03FFFFE07FFFFC
0FFFFFE07FFFFC
1FFFFFE07FFFFC
1FFF80007FF800
3FFE00007FF800
3FFC0000FFF800
7FFC0000FFF800
7FFC0000FFF800
7FF80000FFF000
FFF80001FFF000
FFF80001FFF000
FFF80001FFF000
FFF80001FFE000
FFF80001FFE000
FFFC0003FFE000
FFFF8003FFE000
FFFFFFFFFFE000
FFFFFFFFFFC000
FFFFFFFFFFC000
7FFFFFFFFFC000
3FFFFFFFFFC000
1FFFFFFFFFC000
0FFFFFFFFF8000
03FFFFFFFF8000
003FFFFFF80000
0000BF80000000
ENDCHAR
STARTCHAR quotesingle
ENCODING 39
SWIDTH 274 0
DWIDTH 21 0
BBX 14 20 9 34
BITMAP
1FFC
1FFC
1FFC
1FFC
3FF8
3FF8
3FF8
3FF8
3FF0
3FF0
3FF0
3FE0
7FE0
7FE0
7FE0
7FC0
7FC0
7FC0
7F80
FF80
ENDCHAR
STARTCHAR parenleft
ENCODING 40
SWIDTH 357 0
DWIDTH 28 0
BBX 31 70 4 -12
BITMAP
000003FE
000007F8
00000FF0
00003FE0
00007FC0
0000FF80
0001FF00
0003FF00
0007FE00
000FFC00
001FFC00
003FF800
003FF800
007FF000
007FF000
00FFE000
00FFE000
01FFC000
01FFC000
03FFC000
03FF8000
03FF8000
07FF8000
07FF0000
07FF0000
0FFF0000
0FFF0000
0FFE0000
0FFE0000
1FFE0000
1FFE0000
1FFC0000
1FFC0000
3FFC0000
3FFC0000
3FF80000
3FF80000
3FF80000
7FF80000
7FF80000
7FF00000
7FF00000
7FF00000
7FF00000
7FF00000
FFF00000
FFE00000
FFE00000
FFE00000
FFE00000
FFE00000
FFE00000
FFE00000
7FE00000
7FE00000
7FE00000
7FE00000
7FE00000
3FE00000
3FE00000
3FF00000
1FF00000
1FF00000
0FF80000
0FF80000
07FC0000
03FC0000
03FE0000
01FE0000
00FF0000
ENDCHAR
STARTCHAR parenright
ENCODING 41
SWIDTH 357 0
DWIDTH 28 0
BBX 30 70 -5 -12
BITMAP
0003FE00
0001FE00
0000FF00
0000FF80
00007F80
00007FC0
00003FC0
00003FE0
00003FE0
00001FF0
00001FF0
00001FF8
00001FF8
00001FF8
00001FF8
00001FF8
00001FFC
00001FFC
00001FFC
00001FFC
00001FFC
00001FFC
00001FFC
00001FFC
00001FFC
00003FFC
00003FF8
00003FF8
00003FF8
00003FF8
00007FF8
00007FF8
00007FF8
00007FF0
00007FF0
0000FFF0
0000FFF0
0000FFE0
0000FFE0
0000FFE0
0001FFE0
0001FFC0
0001FFC0
0001FFC0
0003FFC0
0003FF80
0003FF80
0007FF80
0007FF00
0007FF00
000FFF00
000FFE00
000FFE00
001FFC00
001FFC00
003FFC00
003FF800
007FF000
007FF000
00FFE000
00FFC000
01FF8000
03FF0000
07FE0000
0FFC0000
0FF80000
1FF00000
3FC00000
7F800000
FF000000
ENDCHAR
STARTCHAR asterisk
ENCODING 42
SWIDTH 454 0
DWIDTH 35 0
BBX 31 29 6 25
BITMAP
0001FC00
0001F800
0001F800
0001F800
0001F000
0201F018
0703F038
0F83E0F8
1FC3E1FC
3FF3E7FC
1FFBCFFE
07FFFFF0
01FFFFC0
007FFE00
003FF800
003FF000
01FFFC00
07FFFF00
3FF7FFC0
FFEFBFF0
7F8F9FF0
7F0F0FE0
7C1F03C0
301F0180
201F0080
003F0000
003F0000
003F0000
007F0000
ENDCHAR
STARTCHAR plus
ENCODING 43
SWIDTH 546 0
DWIDTH 43 0
BBX 33 31 5 4
BITMAP
0001FF0000
0003FF0000
0003FF0000
0003FF0000
0003FE0000
0003FE0000
0007FE0000
0007FE0000
0007FE0000
0007FC0000
0007FC0000
7FFFFFFF80
7FFFFFFF80
7FFFFFFF00
7FFFFFFF00
7FFFFFFF00
FFFFFFFF00
FFFFFFFF00
FFFFFFFE00
FFFFFFFE00
003FF00000
003FF00000
003FF00000
003FE00000
003FE00000
007FE00000
007FE00000
007FC00000
007FC00000
007FC00000
00FFC00000
ENDCHAR
STARTCHAR comma
ENCODING 44
SWIDTH 299 0
DWIDTH 23 0
BBX 19 22 -2 -11
BITMAP
03FFE0
07FFE0
07FFE0
07FFC0
07FFC0
07FFC0
0FFFC0
0FFF80
0FFF80
0FFF80
0FFF80
00FF80
00FF00
00FF00
01FF00
01FE00
03FE00
7FFC00
7FFC00
7FF800
7FE000
FF8000
ENDCHAR
STARTCHAR hyphen
ENCODING 45
SWIDTH 379 0
DWIDTH 30 0
BBX 23 10 4 17
BITMAP
3FFFFE
7FFFFE
7FFFFE
7FFFFE
7FFFFE
7FFFFC
FFFFFC
FFFFFC
FFFFFC
FFFFF8
ENDCHAR
STARTCHAR period
ENCODING 46
SWIDTH 299 0
DWIDTH 23 0
BBX 16 11 1 0
BITMAP
1FFF
3FFF
3FFF
3FFE
3FFE
3FFE
7FFE
7FFC
7FFC
7FFC
FFFC
ENDCHAR
STARTCHAR slash
ENCODING 47
SWIDTH 412 0
DWIDTH 32 0
BBX 47 62 -6 -4
BITMAP
000000000FFE
000000001FFC
000000001FFC
000000003FF8
000000003FF8
000000007FF0
00000000FFE0
00000000FFE0
00000001FFC0
00000001FFC0
00000003FF80
00000007FF80
00000007FF00
0000000FFE00
0000000FFE00
0000001FFC00
0000001FFC00
0000003FF800
0000007FF000
0000007FF000
000000FFE000
000000FFE000
000001FFC000
000003FFC000
000003FF8000
000007FF0000
000007FF0000
00000FFE0000
00000FFE0000
00001FFC0000
00003FF80000
00003FF80000
00007FF00000
00007FF00000
0000FFE00000
0001FFC00000
0001FFC00000
0003FF800000
0003FF800000
0007FF000000
0007FF000000
000FFE000000
001FFC000000
001FFC000000
003FF8000000
003FF8000000
007FF0000000
00FFE0000000
00FFE0000000
01FFC0000000
01FFC0000000
03FF80000000
03FF80000000
07FF00000000
0FFE00000000
0FFE00000000
1FFC00000000
1FFC00000000
3FF800000000
7FF000000000
7FF000000000
FFE000000000
ENDCHAR
STARTCHAR zero
ENCODING 48
SWIDTH 663 0
DWIDTH 52 0
BBX 49 55 3 -1
BITMAP
00003FFFFF0000
0003FFFFFFF000
000FFFFFFFFC00
001FFFFFFFFE00
003FFFFFFFFE00
007FFFFFFFFF00
007FFFFFFFFF00
00FFFFFFFFFF00
00FFFFFFFFFF80
01FFFFFFFFFF80
01FFFE007FFF80
03FFF8003FFF80
03FFF0001FFF80
03FFF0001FFF80
07FFE0001FFF80
07FFE0001FFF00
07FFE0001FFF00
07FFC0003FFF00
0FFFC0003FFF00
0FFFC0003FFF00
0FFFC0003FFF00
0FFF80003FFE00
1FFF80003FFE00
1FFF80007FFE00
1FFF80007FFE00
1FFF00007FFE00
1FFF00007FFE00
3FFF0000FFFC00
3FFF0000FFFC00
3FFF0000FFFC00
3FFE0000FFFC00
3FFE0000FFF800
7FFE0001FFF800
7FFE0001FFF800
7FFE0001FFF800
7FFC0001FFF000
7FFC0003FFF000
FFFC0003FFF000
FFFC0003FFF000
FFFC0003FFE000
FFFC0007FFE000
FFFC0007FFE000
FFFC000FFFE000
FFFE001FFFC000
FFFFFFFFFFC000
FFFFFFFFFF8000
FFFFFFFFFF8000
FFFFFFFFFF0000
7FFFFFFFFF0000
7FFFFFFFFE0000
3FFFFFFFFC0000
1FFFFFFFF80000
0FFFFFFFE00000
01FFFFFF000000
0001FF80000000
ENDCHAR
STARTCHAR one
ENCODING 49
SWIDTH 400 0
DWIDTH 31 0
BBX 27 54 5 0
BITMAP
00003FE0
0000FFE0
0007FFE0
001FFFE0
007FFFE0
01FFFFC0
07FFFFC0
3FFFFFC0
3FFFFFC0
3FFFFF80
7FFFFF80
7FFFFF80
7FFFFF80
7FFFFF80
7FDFFF00
FF3FFF00
F83FFF00
E03FFF00
803FFF00
003FFE00
007FFE00
007FFE00
007FFE00
007FFC00
007FFC00
00FFFC00
00FFFC00
00FFFC00
00FFF800
00FFF800
01FFF800
01FFF800
01FFF800
01FFF000
03FFF000
03FFF000
03FFF000
03FFE000
03FFE000
07FFE000
07FFE000
07FFE000
07FFC000
07FFC000
0FFFC000
0FFFC000
0FFFC000
0FFF8000
1FFF8000
1FFF8000
1FFF8000
1FFF0000
1FFF0000
3FFF0000
ENDCHAR
STARTCHAR two
ENCODING 50
SWIDTH 625 0
DWIDTH 49 0
BBX 48 54 0 0
BITMAP
00001FFFFF00
0007FFFFFFE0
000FFFFFFFF8
000FFFFFFFFC
000FFFFFFFFE
000FFFFFFFFE
001FFFFFFFFF
001FFFFFFFFF
001FFFFFFFFF
001FFFFFFFFF
001FE000FFFF
002000003FFF
000000003FFF
000000001FFF
000000003FFF
000000003FFF
000000003FFF
000000003FFE
000000007FFE
00000000FFFE
00000001FFFC
00000007FFFC
0000003FFFF8
000001FFFFF8
000007FFFFF0
00003FFFFFE0
0001FFFFFFC0
0007FFFFFF80
001FFFFFFF00
003FFFFFFC00
007FFFFFE000
00FFFFFF8000
01FFFFFC0000
03FFFFF00000
03FFFF800000
07FFFC000000
07FFF0000000
0FFFC0000000
0FFF80000000
0FFF80000000
1FFF00000000
1FFF00000000
1FFF00000000
1FFFFFFFFFC0
3FFFFFFFFFC0
3FFFFFFFFF80
3FFFFFFFFF80
3FFFFFFFFF80
3FFFFFFFFF80
7FFFFFFFFF80
7FFFFFFFFF00
7FFFFFFFFF00
7FFFFFFFFF00
FFFFFFFFFF00
ENDCHAR
STARTCHAR three
ENCODING 51
SWIDTH 620 0
DWIDTH 48 0
BBX 48 55 0 -1
BITMAP
00007FFFFC00
001FFFFFFF80
001FFFFFFFE0
001FFFFFFFF8
001FFFFFFFFC
003FFFFFFFFE
003FFFFFFFFE
003FFFFFFFFE
003FFFFFFFFF
003FFFFFFFFF
007C0000FFFF
000000007FFF
000000003FFF
000000003FFF
000000003FFF
000000003FFE
000000007FFE
000000007FFE
000000007FFE
00000000FFFC
00000001FFF8
00000007FFF8
0000FFFFFFF0
0000FFFFFFE0
0000FFFFFF80
0001FFFFFE00
0001FFFFE000
0001FFFFFC00
0001FFFFFF00
0001FFFFFF80
0003FFFFFFC0
0003FFFFFFC0
0000000FFFE0
00000007FFE0
00000007FFE0
00000007FFE0
00000007FFE0
00000007FFE0
00000007FFE0
00000007FFE0
0000000FFFC0
0000000FFFC0
0000001FFFC0
2000003FFFC0
3FFFFFFFFF80
3FFFFFFFFF80
7FFFFFFFFF00
7FFFFFFFFF00
7FFFFFFFFE00
7FFFFFFFFC00
7FFFFFFFF800
FFFFFFFFE000
FFFFFFFF8000
0FFFFFFC0000
0003F8000000
ENDCHAR
STARTCHAR four
ENCODING 52
SWIDTH 664 0
DWIDTH 52 0
BBX 49 54 1 0
BITMAP
0000001FFFE000
0000003FFFC000
0000003FFF8000
0000007FFF0000
000000FFFE0000
000001FFFC0000
000001FFFC0000
000003FFF80000
000007FFF00000
00000FFFE00000
00000FFFC00000
00001FFFC00000
00003FFF800000
00007FFF000000
00007FFE000000
0000FFFC000000
0001FFFC000000
0003FFF8000000
0003FFF0000000
0007FFE0000000
000FFFC01FF800
001FFFC01FF000
001FFF803FF000
003FFF003FF000
007FFE007FF000
00FFFC007FE000
00FFFC00FFE000
01FFF800FFE000
03FFF001FFE000
07FFE001FFE000
07FFC003FFC000
0FFFC003FFC000
1FFF8007FFC000
3FFFFFFFFFFF80
3FFFFFFFFFFF00
3FFFFFFFFFFF00
7FFFFFFFFFFF00
7FFFFFFFFFFF00
7FFFFFFFFFFE00
7FFFFFFFFFFE00
7FFFFFFFFFFE00
FFFFFFFFFFFE00
FFFFFFFFFFFE00
0000003FFF0000
0000003FFE0000
0000003FFE0000
0000003FFE0000
0000007FFE0000
0000007FFE0000
0000007FFC0000
0000007FFC0000
0000007FFC0000
000000FFFC0000
000000FFF80000
ENDCHAR
STARTCHAR five
ENCODING 53
SWIDTH 639 0
DWIDTH 50 0
BBX 47 55 2 -1
BITMAP
000FFFFFFFFE
000FFFFFFFFE
001FFFFFFFFC
001FFFFFFFFC
001FFFFFFFFC
001FFFFFFFFC
003FFFFFFFFC
003FFFFFFFF8
003FFFFFFFF8
003FFFFFFFF8
003FFFFFFFF8
007FF8000000
007FF8000000
007FF8000000
007FF0000000
007FF0000000
00FFF0000000
00FFF0000000
00FFF0000000
00FFE0000000
00FFE03A0000
01FFFFFFF800
01FFFFFFFE00
01FFFFFFFF80
01FFFFFFFFC0
03FFFFFFFFE0
03FFFFFFFFE0
03FFFFFFFFE0
03FFFFFFFFF0
03FFFFFFFFF0
07FFFFFFFFF0
0000000FFFF0
00000007FFF0
00000003FFF0
00000003FFF0
00000003FFF0
00000003FFE0
00000007FFE0
00000007FFE0
00000007FFE0
00000007FFC0
0000000FFFC0
0000001FFFC0
2000003FFF80
3FFFFFFFFF80
3FFFFFFFFF80
7FFFFFFFFF00
7FFFFFFFFE00
7FFFFFFFFE00
7FFFFFFFFC00
7FFFFFFFF800
FFFFFFFFE000
FFFFFFFF8000
1FFFFFFC0000
0003F8000000
ENDCHAR
STARTCHAR six
ENCODING 54
SWIDTH 676 0
DWIDTH 53 0
BBX 49 55 4 -1
BITMAP
000007FFFFE000
00007FFFFFFF80
0001FFFFFFFF80
0007FFFFFFFF00
000FFFFFFFFF00
001FFFFFFFFF00
003FFFFFFFFF00
007FFFFFFFFF00
00FFFFFFFFFE00
00FFFFFFFFFE00
01FFFF80007E00
01FFFC00000000
03FFF800000000
03FFF000000000
03FFE000000000
07FFE000000000
07FFE000000000
07FFC000000000
0FFFC000000000
0FFFC000000000
0FFF8007000000
1FFF83FFFE0000
1FFF9FFFFF8000
1FFFBFFFFFC000
1FFFFFFFFFE000
1FFFFFFFFFF000
3FFFFFFFFFF000
3FFFFFFFFFF800
3FFFFFFFFFF800
3FFFFFFFFFF800
7FFFFE7FFFF800
7FFF8001FFF800
7FFF0000FFF800
7FFE0000FFF800
7FFE0000FFF800
7FFC0000FFF800
FFFC0000FFF800
FFFC0000FFF800
FFFC0001FFF000
FFF80001FFF000
FFF80001FFF000
FFF80003FFF000
FFFC0003FFE000
FFFE000FFFE000
FFFFF3FFFFE000
FFFFFFFFFFC000
7FFFFFFFFFC000
7FFFFFFFFF8000
7FFFFFFFFF0000
3FFFFFFFFE0000
1FFFFFFFFC0000
0FFFFFFFF80000
07FFFFFFE00000
00FFFFFF000000
00013F00000000
ENDCHAR
STARTCHAR seven
ENCODING 55
SWIDTH 584 0
DWIDTH 46 0
BBX 46 54 4 0
BITMAP
03FFFFFFFFFC
07FFFFFFFFF8
07FFFFFFFFF8
07FFFFFFFFF8
07FFFFFFFFF8
07FFFFFFFFF0
0FFFFFFFFFF0
0FFFFFFFFFF0
0FFFFFFFFFF0
0FFFFFFFFFF0
1FFFFFFFFFE0
0000000FFFC0
0000001FFFC0
0000001FFF80
0000003FFF80
0000007FFF00
0000007FFE00
000000FFFE00
000001FFFC00
000001FFF800
000003FFF800
000007FFF000
000007FFE000
00000FFFE000
00001FFFC000
00001FFFC000
00003FFF8000
00007FFF0000
00007FFF0000
0000FFFE0000
0001FFFC0000
0001FFFC0000
0003FFF80000
0007FFF00000
0007FFF00000
000FFFE00000
001FFFE00000
001FFFC00000
003FFF800000
007FFF800000
007FFF000000
00FFFE000000
01FFFE000000
01FFFC000000
03FFF8000000
07FFF8000000
07FFF0000000
0FFFF0000000
1FFFE0000000
1FFFC0000000
3FFFC0000000
7FFF80000000
7FFF00000000
FFFF00000000
ENDCHAR
STARTCHAR eight
ENCODING 56
SWIDTH 695 0
DWIDTH 54 0
BBX 51 55 3 -1
BITMAP
00000FFFFF8000
0000FFFFFFF000
0003FFFFFFFE00
000FFFFFFFFF00
001FFFFFFFFF80
003FFFFFFFFFC0
007FFFFFFFFFC0
007FFFFFFFFFE0
00FFFFFFFFFFE0
00FFFFFFFFFFE0
01FFFE000FFFE0
01FFF80007FFE0
01FFF80007FFE0
03FFF00007FFE0
03FFF00007FFE0
03FFF00007FFE0
03FFE00007FFC0
03FFE00007FFC0
03FFE0000FFFC0
03FFE0000FFF80
03FFE0001FFF80
01FFF0003FFF00
01FFFFFFFFFE00
00FFFFFFFFFC00
007FFFFFFFF000
003FFFFFFFC000
0007FFFFFE0000
003FFFFFFF8000
00FFFFFFFFE000
03FFFFFFFFF000
07FFFFFFFFF800
0FFFF80FFFFC00
1FFF8000FFFC00
3FFF00007FFC00
3FFE00007FFC00
7FFE00007FFC00
7FFE00007FFC00
7FFC00007FFC00
7FFC00007FFC00
FFFC0000FFFC00
FFFC0000FFFC00
FFFC0000FFFC00
FFFC0001FFF800
FFFE0003FFF800
FFFFC03FFFF800
FFFFFFFFFFF000
FFFFFFFFFFF000
7FFFFFFFFFE000
7FFFFFFFFFC000
3FFFFFFFFF8000
1FFFFFFFFF0000
0FFFFFFFFE0000
03FFFFFFF80000
007FFFFFC00000
00007F80000000
ENDCHAR
STARTCHAR nine
ENCODING 57
SWIDTH 676 0
DWIDTH 53 0
BBX 49 55 3 -1
BITMAP
00001FFFFE0000
0001FFFFFFE000
0007FFFFFFF800
001FFFFFFFFC00
003FFFFFFFFE00
007FFFFFFFFE00
00FFFFFFFFFF00
01FFFFFFFFFF00
01FFFFFFFFFF80
03FFFFFFFFFF80
03FFF8003FFF80
03FFF0001FFF80
07FFE0001FFF80
07FFC0000FFF80
07FFC0001FFF80
07FFC0001FFF80
0FFF80001FFF80
0FFF80001FFF00
0FFF80001FFF00
0FFF80001FFF00
0FFF80003FFF00
0FFF80003FFF00
0FFFC0007FFF00
0FFFF003FFFF00
0FFFFFFFFFFE00
0FFFFFFFFFFE00
0FFFFFFFFFFE00
0FFFFFFFFFFE00
07FFFFFFFFFC00
07FFFFFFFFFC00
03FFFFFFFFFC00
01FFFFFCFFFC00
007FFFF0FFFC00
0007FF00FFF800
00000001FFF800
00000001FFF800
00000001FFF000
00000001FFF000
00000003FFF000
00000003FFE000
00000007FFE000
0000000FFFE000
0000001FFFC000
2000007FFFC000
3FFFFFFFFF8000
3FFFFFFFFF8000
7FFFFFFFFF0000
7FFFFFFFFE0000
7FFFFFFFFE0000
7FFFFFFFFC0000
7FFFFFFFF00000
FFFFFFFFE00000
FFFFFFFF800000
0FFFFFFC000000
0001FC00000000
ENDCHAR
STARTCHAR colon
ENCODING 58
SWIDTH 299 0
DWIDTH 23 0
BBX 22 40 1 0
BITMAP
007FFC
007FFC
00FFFC
00FFF8
00FFF8
00FFF8
00FFF8
01FFF8
01FFF0
01FFF0
01FFF0
000000
000000
000000
000000
000000
000000
000000
000000
000000
000000
000000
000000
000000
000000
000000
000000
000000
000000
1FFF00
1FFF00
3FFF00
3FFE00
3FFE00
3FFE00
7FFE00
7FFC00
7FFC00
7FFC00
FFFC00
ENDCHAR
STARTCHAR semicolon
ENCODING 59
SWIDTH 299 0
DWIDTH 23 0
BBX 25 51 -2 -11
BITMAP
000FFF80
000FFF80
001FFF80
001FFF00
001FFF00
001FFF00
001FFF00
003FFF00
003FFE00
003FFE00
003FFE00
00400000
00000000
00000000
00000000
00000000
00000000
00000000
00000000
00000000
00000000
00000000
00000000
00000000
00000000
00000000
00000000
00000000
00000000
03FFE000
07FFE000
07FFE000
07FFC000
07FFC000
07FFC000
0FFFC000
0FFF8000
0FFF8000
0FFF8000
0FFF8000
00FF8000
00FF0000
00FF0000
01FF0000
01FE0000
03FE0000
7FFC0000
7FFC0000
7FF80000
7FE00000
FF800000
ENDCHAR
STARTCHAR less
ENCODING 60
SWIDTH 547 0
DWIDTH 43 0
BBX 36 33 5 3
BITMAP
0000000030
00000001E0
0000000FE0
0000007FE0
000003FFE0
00000FFFC0
00007FFFC0
0003FFFFC0
001FFFFFC0
00FFFFFF00
07FFFFF800
3FFFFFC000
7FFFFE0000
7FFFF00000
7FFF800000
7FFC000000
7FE0000000
FFFC000000
FFFF000000
FFFFE00000
FFFFF80000
7FFFFF0000
0FFFFFC000
03FFFFF800
007FFFFC00
001FFFFC00
0007FFFC00
0000FFFC00
00003FF800
000007F800
000001F800
0000003800
0000000800
ENDCHAR
STARTCHAR equal
ENCODING 61
SWIDTH 546 0
DWIDTH 43 0
BBX 37 25 3 7
BITMAP
07FFFFFFF8
07FFFFFFF0
07FFFFFFF0
0FFFFFFFF0
0FFFFFFFF0
0FFFFFFFF0
0FFFFFFFE0
0FFFFFFFE0
1000000000
0000000000
0000000000
0000000000
0000000000
0000000000
0000000000
0000000000
3FFFFFFF80
3FFFFFFF80
7FFFFFFF80
7FFFFFFF80
7FFFFFFF00
7FFFFFFF00
FFFFFFFF00
FFFFFFFF00
FFFFFFFF00
ENDCHAR
STARTCHAR greater
ENCODING 62
SWIDTH 547 0
DWIDTH 43 0
BBX 36 33 2 3
BITMAP
0180000000
01E0000000
01FC000000
01FF000000
03FFE00000
03FFF80000
03FFFE0000
03FFFFC000
03FFFFF000
00FFFFFE00
001FFFFF80
0007FFFFF0
0000FFFFF0
00001FFFF0
000007FFF0
000000FFE0
000001FFE0
00000FFFE0
00007FFFE0
0003FFFFE0
001FFFFFC0
00FFFFFF00
07FFFFF800
3FFFFFE000
3FFFFF0000
3FFFF80000
3FFFC00000
7FFE000000
7FF0000000
7F80000000
7E00000000
7000000000
8000000000
ENDCHAR
STARTCHAR question
ENCODING 63
SWIDTH 525 0
DWIDTH 41 0
BBX 35 54 7 0
BITMAP
00FFFFF000
0FFFFFFE00
0FFFFFFF00
1FFFFFFF80
1FFFFFFFC0
1FFFFFFFE0
1FFFFFFFE0
1FFFFFFFE0
3FFFFFFFE0
3FFFFFFFE0
38000FFFE0
000007FFE0
000003FFE0
000003FFE0
000007FFE0
000007FFE0
000007FFC0
000007FFC0
00000FFFC0
00001FFF80
0000FFFF80
0007FFFF00
001FFFFF00
007FFFFE00
00FFFFFC00
00FFFFF000
01FFFFC000
01FFFE0000
03FFF00000
03FFC00000
03FF800000
03FF800000
07FF800000
07FF000000
07FF000000
07FF000000
0000000000
0000000000
0000000000
0000000000
0000000000
0000000000
0000000000
3FFE000000
3FFE000000
3FFE000000
3FFE000000
7FFE000000
7FFC000000
7FFC000000
7FFC000000
FFFC000000
FFF8000000
FFF8000000
ENDCHAR
STARTCHAR at
ENCODING 64
SWIDTH 957 0
DWIDTH 75 0
BBX 68 62 4 -8
BITMAP
000001FFFFFFFF0000
00003FFFFFFFFFF000
0000FFFFFFFFFFFE00
0003FFFFFFFFFFFF00
000FFFFFFCFFFFFF80
001FFC00000000FFC0
003FE0000000001FE0
003F800000000007E0
007F000000000003E0
007E000000000003F0
00FC000000000003F0
00F8000000000001F0
01F8000000000001F0
01F0000000000001F0
03F0003FF81FF801F0
03F000FFFE3FF801F0
03E001FFFF3FF801F0
03E003FFFFBFF803F0
07E007FFFFFFF003F0
07C007FFFFFFF003E0
07C00FFFFFFFF003E0
07C00FFFFFFFF003E0
0FC01FFF87FFE003E0
0F801FFE01FFE007E0
0F801FFC00FFE007E0
0F803FF800FFE007C0
0F803FF800FFE007C0
1F803FF800FFC007C0
1F003FF801FFC00FC0
1F007FF001FFC00FC0
1F007FF001FFC00F80
1F007FF001FFC00F80
3F007FF001FF800F80
3F007FE003FF801F80
3E00FFE003FF801F00
3E00FFE003FF801F00
3E00FFE007FF001F00
7E00FFE007FF003F00
7E00FFE00FFF003E00
7E00FFF01FFF003E00
7C00FFFFFFFF007E00
7C00FFFFFFFE007C00
7C00FFFFFFFE00FC00
7C00FFFFFFFFFFF800
7C007FFFEFFFFFF800
FC007FFFEFFFFFF000
FC003FFFCFFFFFE000
FC000FFF0FFFFF8000
FC0000F00000000000
FC0000000000000000
FC0000000000000000
FC0000000000000000
7C0000000000000000
7E0000000000000000
7E0000000000000000
3F8000000000000000
3FE000000000000000
1FFFF0000078000000
0FFFFFFFFFF0000000
07FFFFFFFFF0000000
00FFFFFFFFF0000000
000FFFFFFFF0000000
ENDCHAR
STARTCHAR A
ENCODING 65
SWIDTH 706 0
DWIDTH 55 0
BBX 53 54 -3 0
BITMAP
00000007FFFE00
0000000FFFFE00
0000001FFFFE00
0000001FFFFF00
0000003FFFFF00
0000003FFFFF00
0000007FFFFF00
0000007FFFFF00
000000FFFFFF00
000000FFFFFF00
000001FFFFFF00
000001FFFFFF00
000003FFEFFF80
000003FFEFFF80
000007FFCFFF80
00000FFF8FFF80
00000FFF8FFF80
00001FFF0FFF80
00001FFF07FF80
00003FFE07FF80
00003FFE07FF80
00007FFC07FFC0
00007FFC07FFC0
0000FFF807FFC0
0000FFF807FFC0
0001FFF007FFC0
0003FFF007FFC0
0003FFE007FFC0
0007FFC003FFC0
0007FFC003FFC0
000FFF8003FFE0
000FFF8003FFE0
001FFF0003FFE0
001FFFFFFFFFE0
003FFFFFFFFFE0
003FFFFFFFFFE0
007FFFFFFFFFE0
007FFFFFFFFFE0
00FFFFFFFFFFF0
01FFFFFFFFFFF0
01FFFFFFFFFFF0
03FFFFFFFFFFF0
03FFFFFFFFFFF0
07FFE00001FFF0
07FFC00001FFF0
0FFFC00001FFF0
0FFF800001FFF0
1FFF800001FFF8
1FFF000001FFF8
3FFF000000FFF8
3FFE000000FFF8
7FFE000000FFF8
FFFC000000FFF8
FFFC000000FFF8
ENDCHAR
STARTCHAR B
ENCODING 66
SWIDTH 674 0
DWIDTH 53 0
BBX 52 54 2 0
BITMAP
001FFFFFFF0000
001FFFFFFFF800
001FFFFFFFFE00
003FFFFFFFFF80
003FFFFFFFFFC0
003FFFFFFFFFE0
003FFFFFFFFFE0
007FFFFFFFFFE0
007FFFFFFFFFF0
007FFFFFFFFFF0
007FFC003FFFF0
007FFC0007FFF0
00FFFC0007FFF0
00FFFC0007FFF0
00FFF80007FFE0
00FFF80007FFE0
00FFF80007FFE0
01FFF80007FFC0
01FFF80007FFC0
01FFF0000FFFC0
01FFF0001FFF80
03FFF0003FFF00
03FFFFFFFFFE00
03FFFFFFFFFC00
03FFFFFFFFF800
03FFFFFFFFC000
07FFFFFFFE0000
07FFFFFFFF8000
07FFFFFFFFE000
07FFFFFFFFF000
07FFFFFFFFF800
0FFFC003FFFC00
0FFFC000FFFC00
0FFF80007FFC00
0FFF80007FFE00
0FFF80007FFE00
1FFF80007FFE00
1FFF80007FFE00
1FFF00007FFC00
1FFF0000FFFC00
3FFF0000FFFC00
3FFF0001FFFC00
3FFE0001FFFC00
3FFE0007FFF800
3FFFFFFFFFF800
7FFFFFFFFFF000
7FFFFFFFFFF000
7FFFFFFFFFE000
7FFFFFFFFFE000
7FFFFFFFFFC000
FFFFFFFFFF8000
FFFFFFFFFE0000
FFFFFFFFF80000
FFFFFFFFC00000
ENDCHAR
STARTCHAR C
ENCODING 67
SWIDTH 573 0
DWIDTH 45 0
BBX 45 55 3 -1
BITMAP
00000FFFFFC0
0000FFFFFFF8
0003FFFFFFF8
0007FFFFFFF8
001FFFFFFFF0
003FFFFFFFF0
003FFFFFFFF0
007FFFFFFFF0
00FFFFFFFFF0
00FFFFFFFFE0
01FFFF800020
01FFFC000000
01FFF8000000
03FFF0000000
03FFF0000000
07FFE0000000
07FFE0000000
07FFC0000000
07FFC0000000
0FFFC0000000
0FFFC0000000
0FFF80000000
0FFF80000000
1FFF80000000
1FFF80000000
1FFF80000000
1FFF00000000
3FFF00000000
3FFF00000000
3FFF00000000
3FFE00000000
3FFE00000000
7FFE00000000
7FFE00000000
7FFE00000000
7FFE00000000
7FFC00000000
7FFC00000000
7FFC00000000
FFFC00000000
FFFC00000000
FFFE00000000
FFFE00000000
7FFF80000000
7FFFFFFFF000
7FFFFFFFF000
7FFFFFFFF000
7FFFFFFFF000
3FFFFFFFE000
3FFFFFFFE000
1FFFFFFFE000
0FFFFFFFE000
03FFFFFFE000
007FFFFFC000
00007F800000
ENDCHAR
STARTCHAR D
ENCODING 68
SWIDTH 690 0
DWIDTH 54 0
BBX 51 54 2 0
BITMAP
001FFFFFC00000
001FFFFFFFE000
001FFFFFFFFC00
003FFFFFFFFF00
003FFFFFFFFF80
003FFFFFFFFFC0
003FFFFFFFFFC0
007FFFFFFFFFE0
007FFFFFFFFFE0
007FFFFFFFFFE0
007FFFFFFFFFE0
007FFC000FFFE0
00FFFC0007FFE0
00FFFC0007FFE0
00FFFC0007FFE0
00FFF80007FFE0
00FFF80007FFE0
01FFF80007FFE0
01FFF80007FFE0
01FFF80007FFE0
01FFF00007FFC0
03FFF00007FFC0
03FFF0000FFFC0
03FFF0000FFFC0
03FFF0000FFFC0
03FFE0000FFF80
07FFE0001FFF80
07FFE0001FFF80
07FFE0001FFF80
07FFC0001FFF80
07FFC0001FFF00
0FFFC0003FFF00
0FFFC0003FFF00
0FFFC0003FFF00
0FFF80003FFE00
0FFF80007FFE00
1FFF80007FFE00
1FFF80007FFE00
1FFF8000FFFC00
1FFF0000FFFC00
3FFF0001FFFC00
3FFF0001FFFC00
3FFF0003FFF800
3FFE003FFFF800
3FFFFFFFFFF000
7FFFFFFFFFF000
7FFFFFFFFFE000
7FFFFFFFFFE000
7FFFFFFFFFC000
7FFFFFFFFF8000
FFFFFFFFFF0000
FFFFFFFFFC0000
FFFFFFFFF00000
FFFFFFFC000000
ENDCHAR
STARTCHAR E
ENCODING 69
SWIDTH 611 0
DWIDTH 48 0
BBX 49 54 2 0
BITMAP
001FFFFFFFFF80
001FFFFFFFFF80
001FFFFFFFFF80
003FFFFFFFFF80
003FFFFFFFFF80
003FFFFFFFFF00
003FFFFFFFFF00
007FFFFFFFFF00
007FFFFFFFFF00
007FFFFFFFFE00
007FFFFFFFFE00
007FFC00000000
00FFFC00000000
00FFFC00000000
00FFFC00000000
00FFF800000000
00FFF800000000
01FFF800000000
01FFF800000000
01FFF800000000
01FFF000000000
03FFF000000000
03FFFFFFFF8000
03FFFFFFFF8000
03FFFFFFFF0000
03FFFFFFFF0000
07FFFFFFFF0000
07FFFFFFFF0000
07FFFFFFFF0000
07FFFFFFFE0000
07FFFFFFFE0000
0FFFFFFFFE0000
0FFFC000000000
0FFFC000000000
0FFF8000000000
0FFF8000000000
1FFF8000000000
1FFF8000000000
1FFF0000000000
1FFF0000000000
3FFF0000000000
3FFF0000000000
3FFF0000000000
3FFE0000000000
3FFFFFFFFF0000
7FFFFFFFFF0000
7FFFFFFFFF0000
7FFFFFFFFE0000
7FFFFFFFFE0000
7FFFFFFFFE0000
FFFFFFFFFE0000
FFFFFFFFFC0000
FFFFFFFFFC0000
FFFFFFFFFC0000
ENDCHAR
STARTCHAR F
ENCODING 70
SWIDTH 571 0
DWIDTH 45 0
BBX 48 54 2 0
BITMAP
001FFFFFFFFF
001FFFFFFFFF
001FFFFFFFFE
003FFFFFFFFE
003FFFFFFFFE
003FFFFFFFFE
003FFFFFFFFE
007FFFFFFFFC
007FFFFFFFFC
007FFFFFFFFC
007FFFFFFFFC
007FFC000000
00FFFC000000
00FFFC000000
00FFFC000000
00FFF8000000
00FFF8000000
01FFF8000000
01FFF8000000
01FFF0000000
01FFF0000000
03FFF0000000
03FFF0000000
03FFF0000000
03FFFFFFFF00
03FFFFFFFE00
07FFFFFFFE00
07FFFFFFFE00
07FFFFFFFE00
07FFFFFFFE00
07FFFFFFFC00
0FFFFFFFFC00
0FFFFFFFFC00
0FFFFFFFFC00
0FFF80000000
0FFF80000000
1FFF80000000
1FFF80000000
1FFF00000000
1FFF00000000
3FFF00000000
3FFF00000000
3FFF00000000
3FFE00000000
3FFE00000000
7FFE00000000
7FFE00000000
7FFE00000000
7FFC00000000
7FFC00000000
FFFC00000000
FFFC00000000
FFF800000000
FFF800000000
ENDCHAR
STARTCHAR G
ENCODING 71
SWIDTH 674 0
DWIDTH 53 0
BBX 51 55 3 -1
BITMAP
000007FFFFF000
00007FFFFFFFE0
0001FFFFFFFFE0
0007FFFFFFFFE0
000FFFFFFFFFC0
001FFFFFFFFFC0
003FFFFFFFFFC0
007FFFFFFFFFC0
00FFFFFFFFFF80
00FFFFFFFFFF80
01FFFF80000F80
01FFFC00000000
03FFF800000000
03FFF000000000
03FFF000000000
07FFE000000000
07FFE000000000
07FFC000000000
0FFFC000000000
0FFFC000000000
0FFF8000000000
1FFF8000000000
1FFF8000000000
1FFF803FFFFE00
1FFF003FFFFC00
1FFF003FFFFC00
3FFF003FFFFC00
3FFF007FFFFC00
3FFE007FFFFC00
3FFE007FFFF800
3FFE007FFFF800
7FFE00FFFFF800
7FFE00FFFFF800
7FFC0000FFF000
7FFC0000FFF000
7FFC0000FFF000
7FFC0000FFF000
7FFC0001FFF000
FFFC0001FFE000
FFFC0001FFE000
FFFC0001FFE000
FFFC0001FFE000
7FFE0003FFE000
7FFF0003FFC000
7FFFFC1FFFC000
7FFFFFFFFFC000
7FFFFFFFFFC000
3FFFFFFFFFC000
3FFFFFFFFF8000
1FFFFFFFFF8000
0FFFFFFFFF8000
07FFFFFFFF8000
01FFFFFFFF0000
003FFFFFFC0000
00001FC0000000
ENDCHAR
STARTCHAR H
ENCODING 72
SWIDTH 724 0
DWIDTH 56 0
BBX 56 54 2 0
BITMAP
001FFF80001FFF
001FFF00003FFF
001FFF00003FFF
003FFF00003FFF
003FFF00003FFE
003FFF00003FFE
003FFE00007FFE
007FFE00007FFE
007FFE00007FFE
007FFE00007FFC
007FFE0000FFFC
007FFC0000FFFC
00FFFC0000FFFC
00FFFC0000FFF8
00FFFC0000FFF8
00FFF80001FFF8
00FFF80001FFF8
01FFF80001FFF8
01FFF80001FFF0
01FFF80001FFF0
01FFF00003FFF0
03FFFFFFFFFFF0
03FFFFFFFFFFF0
03FFFFFFFFFFE0
03FFFFFFFFFFE0
03FFFFFFFFFFE0
07FFFFFFFFFFE0
07FFFFFFFFFFC0
07FFFFFFFFFFC0
07FFFFFFFFFFC0
07FFFFFFFFFFC0
0FFFFFFFFFFFC0
0FFFFFFFFFFF80
0FFFC0000FFF80
0FFF80001FFF80
0FFF80001FFF80
1FFF80001FFF80
1FFF80001FFF00
1FFF80001FFF00
1FFF00003FFF00
3FFF00003FFF00
3FFF00003FFE00
3FFF00003FFE00
3FFE00007FFE00
3FFE00007FFE00
7FFE00007FFE00
7FFE00007FFC00
7FFE00007FFC00
7FFC0000FFFC00
7FFC0000FFFC00
FFFC0000FFFC00
FFFC0000FFF800
FFFC0000FFF800
FFF80001FFF800
ENDCHAR
STARTCHAR I
ENCODING 73
SWIDTH 318 0
DWIDTH 25 0
BBX 25 54 2 0
BITMAP
001FFF80
001FFF00
001FFF00
003FFF00
003FFF00
003FFF00
003FFE00
007FFE00
007FFE00
007FFE00
007FFE00
007FFC00
00FFFC00
00FFFC00
00FFFC00
00FFF800
00FFF800
01FFF800
01FFF800
01FFF800
01FFF000
03FFF000
03FFF000
03FFF000
03FFF000
03FFE000
07FFE000
07FFE000
07FFE000
07FFC000
07FFC000
0FFFC000
0FFFC000
0FFFC000
0FFF8000
0FFF8000
1FFF8000
1FFF8000
1FFF8000
1FFF0000
3FFF0000
3FFF0000
3FFF0000
3FFE0000
3FFE0000
7FFE0000
7FFE0000
7FFE0000
7FFC0000
7FFC0000
FFFC0000
FFFC0000
FFFC0000
FFF80000
ENDCHAR
STARTCHAR J
ENCODING 74
SWIDTH 405 0
DWIDTH 32 0
BBX 36 54 -2 0
BITMAP
000003FFF0
000003FFE0
000007FFE0
000007FFE0
000007FFE0
000007FFE0
000007FFC0
00000FFFC0
00000FFFC0
00000FFFC0
00000FFFC0
00000FFF80
00001FFF80
00001FFF80
00001FFF80
00001FFF00
00001FFF00
00003FFF00
00003FFF00
00003FFF00
00003FFE00
00007FFE00
00007FFE00
00007FFE00
00007FFE00
00007FFC00
0000FFFC00
0000FFFC00
0000FFFC00
0000FFF800
0000FFF800
0001FFF800
0001FFF800
0001FFF800
0001FFF000
0003FFF000
0003FFF000
0003FFF000
0003FFF000
0007FFE000
0007FFE000
000FFFE000
000FFFC000
003FFFC000
3FFFFFC000
7FFFFF8000
7FFFFF8000
7FFFFF8000
7FFFFF0000
7FFFFE0000
FFFFFC0000
FFFFF80000
FFFFE00000
FFFC000000
ENDCHAR
STARTCHAR K
ENCODING 75
SWIDTH 699 0
DWIDTH 55 0
BBX 59 54 2 0
BITMAP
001FFF80000FFFE0
001FFF00001FFFC0
001FFF00003FFF80
003FFF00007FFF00
003FFF0000FFFE00
003FFF0001FFFC00
003FFE0003FFF800
007FFE0007FFF000
007FFE000FFFE000
007FFE000FFFC000
007FFE001FFFC000
007FFC003FFF8000
00FFFC007FFF0000
00FFFC00FFFE0000
00FFFC01FFFC0000
00FFF803FFF80000
00FFF807FFF00000
01FFF80FFFE00000
01FFF80FFFC00000
01FFF81FFF800000
01FFF03FFF000000
03FFF07FFF000000
03FFFFFFFE000000
03FFFFFFFC000000
03FFFFFFF8000000
03FFFFFFF0000000
07FFFFFFE0000000
07FFFFFFE0000000
07FFFFFFE0000000
07FFFFFFF0000000
07FFFFFFF0000000
0FFFFFFFF8000000
0FFFC1FFF8000000
0FFFC1FFFC000000
0FFF80FFFC000000
0FFF80FFFE000000
1FFF807FFE000000
1FFF807FFF000000
1FFF803FFF000000
1FFF003FFF800000
3FFF001FFF800000
3FFF001FFFC00000
3FFF000FFFC00000
3FFE000FFFE00000
3FFE0007FFE00000
7FFE0007FFF00000
7FFE0007FFF00000
7FFE0003FFF00000
7FFC0003FFF80000
7FFC0001FFF80000
FFFC0001FFFC0000
FFFC0000FFFC0000
FFFC0000FFFE0000
FFF800007FFF0000
ENDCHAR
STARTCHAR L
ENCODING 76
SWIDTH 540 0
DWIDTH 42 0
BBX 37 54 2 0
BITMAP
001FFF8000
001FFF0000
001FFF0000
003FFF0000
003FFF0000
003FFF0000
003FFE0000
007FFE0000
007FFE0000
007FFE0000
007FFE0000
007FFC0000
00FFFC0000
00FFFC0000
00FFFC0000
00FFF80000
00FFF80000
01FFF80000
01FFF80000
01FFF80000
01FFF00000
03FFF00000
03FFF00000
03FFF00000
03FFF00000
03FFE00000
07FFE00000
07FFE00000
07FFE00000
07FFC00000
07FFC00000
0FFFC00000
0FFFC00000
0FFFC00000
0FFF800000
0FFF800000
1FFF800000
1FFF800000
1FFF800000
1FFF000000
3FFF000000
3FFF000000
3FFF000000
3FFFFFFFF8
3FFFFFFFF8
7FFFFFFFF8
7FFFFFFFF0
7FFFFFFFF0
7FFFFFFFF0
7FFFFFFFF0
FFFFFFFFE0
FFFFFFFFE0
FFFFFFFFE0
FFFFFFFFE0
ENDCHAR
STARTCHAR M
ENCODING 77
SWIDTH 917 0
DWIDTH 72 0
BBX 71 54 2 0
BITMAP
001FFFF8000007FFFE
001FFFFC00000FFFFE
001FFFFC00001FFFFE
003FFFFC00001FFFFE
003FFFFC00003FFFFC
003FFFFC00003FFFFC
003FFFFC00007FFFFC
007FFFFC00007FFFFC
007FFFFE0000FFFFFC
007FFFFE0001FFFFF8
007FFFFE0001FFFFF8
007FFFFE0003FFFFF8
00FFFFFE0003FFFFF8
00FFFFFE0007FFFFF8
00FFFFFE0007FFFFF0
00FFFFFF000FFFFFF0
00FFFFFF001FFFFFF0
01FFFFFF001FFFFFF0
01FFFFFF003FFFFFE0
01FFFFFF003FFBFFE0
01FFEFFF007FFBFFE0
03FFE7FF007FF3FFE0
03FFE7FF80FFF3FFE0
03FFE7FF81FFE7FFC0
03FFE7FF81FFE7FFC0
03FFC7FF83FFC7FFC0
07FFC7FF83FFC7FFC0
07FFC7FF87FF8FFFC0
07FFC3FFC7FF0FFF80
07FFC3FFCFFF0FFF80
07FF83FFDFFE0FFF80
0FFF83FFDFFE0FFF80
0FFF83FFFFFC1FFF00
0FFF83FFFFFC1FFF00
0FFF03FFFFF81FFF00
0FFF01FFFFF01FFF00
1FFF01FFFFF01FFF00
1FFF01FFFFE03FFE00
1FFF01FFFFE03FFE00
1FFE01FFFFC03FFE00
3FFE01FFFFC03FFE00
3FFE01FFFF807FFE00
3FFE01FFFF807FFC00
3FFE00FFFF007FFC00
3FFC00FFFE007FFC00
7FFC00FFFE007FFC00
7FFC00FFFC00FFF800
7FFC00FFFC00FFF800
7FF800FFF800FFF800
7FF800FFF800FFF800
FFF8007FF000FFF800
FFF8007FE001FFF000
FFF8007FE001FFF000
FFF0007FC001FFF000
ENDCHAR
STARTCHAR N
ENCODING 78
SWIDTH 729 0
DWIDTH 57 0
BBX 57 54 2 0
BITMAP
001FFF80000FFF80
001FFFC0000FFF00
001FFFC0001FFF00
003FFFC0001FFF00
003FFFE0001FFF00
003FFFE0001FFF00
003FFFF0003FFE00
007FFFF0003FFE00
007FFFF0003FFE00
007FFFF8003FFE00
007FFFF8003FFE00
007FFFFC007FFC00
00FFFFFC007FFC00
00FFFFFC007FFC00
00FFFFFE007FFC00
00FFFFFE00FFF800
00FFFFFF00FFF800
01FFFFFF00FFF800
01FFFFFF00FFF800
01FFFFFF80FFF800
01FFFFFF81FFF000
03FFFFFFC1FFF000
03FFEFFFC1FFF000
03FFE7FFC1FFF000
03FFE7FFE1FFF000
03FFE7FFE3FFE000
07FFC3FFF3FFE000
07FFC3FFF3FFE000
07FFC3FFF3FFE000
07FFC1FFFFFFC000
07FF81FFFFFFC000
0FFF80FFFFFFC000
0FFF80FFFFFFC000
0FFF80FFFFFFC000
0FFF807FFFFF8000
0FFF007FFFFF8000
1FFF003FFFFF8000
1FFF003FFFFF8000
1FFF003FFFFF8000
1FFF001FFFFF0000
3FFE001FFFFF0000
3FFE001FFFFF0000
3FFE000FFFFF0000
3FFE000FFFFE0000
3FFC0007FFFE0000
7FFC0007FFFE0000
7FFC0007FFFE0000
7FFC0003FFFE0000
7FFC0003FFFC0000
7FF80001FFFC0000
FFF80001FFFC0000
FFF80001FFFC0000
FFF80000FFFC0000
FFF80000FFF80000
ENDCHAR
STARTCHAR O
ENCODING 79
SWIDTH 720 0
DWIDTH 56 0
BBX 52 55 3 -1
BITMAP
00001FFFFFC000
0001FFFFFFFC00
0007FFFFFFFF00
000FFFFFFFFF80
001FFFFFFFFFC0
003FFFFFFFFFE0
007FFFFFFFFFE0
00FFFFFFFFFFF0
00FFFFFFFFFFF0
01FFFFFFFFFFF0
01FFFE000FFFF0
01FFFC0003FFF0
03FFF80003FFF0
03FFF00003FFF0
03FFF00003FFF0
07FFE00003FFF0
07FFE00003FFF0
07FFE00003FFF0
07FFC00003FFF0
0FFFC00003FFE0
0FFFC00003FFE0
0FFFC00007FFE0
0FFF800007FFE0
0FFF800007FFE0
1FFF800007FFE0
1FFF800007FFC0
1FFF80000FFFC0
1FFF00000FFFC0
3FFF00000FFFC0
3FFF00000FFF80
3FFF00001FFF80
3FFF00001FFF80
3FFE00001FFF80
3FFE00001FFF80
7FFE00001FFF00
7FFE00003FFF00
7FFE00003FFF00
7FFC00003FFF00
7FFC00007FFE00
7FFC00007FFE00
FFFC00007FFE00
FFFC0000FFFC00
FFFE0001FFFC00
FFFF0003FFFC00
7FFFFFFFFFF800
7FFFFFFFFFF800
7FFFFFFFFFF000
7FFFFFFFFFF000
3FFFFFFFFFE000
3FFFFFFFFFC000
1FFFFFFFFF8000
0FFFFFFFFF0000
03FFFFFFFC0000
007FFFFFE00000
00003FD0000000
ENDCHAR
STARTCHAR P
ENCODING 80
SWIDTH 649 0
DWIDTH 51 0
BBX 51 54 2 0
BITMAP
001FFFFFFF0000
001FFFFFFFF800
001FFFFFFFFE00
003FFFFFFFFF00
003FFFFFFFFF80
003FFFFFFFFFC0
003FFFFFFFFFC0
007FFFFFFFFFC0
007FFFFFFFFFC0
007FFFFFFFFFE0
007FFC00FFFFE0
007FFC000FFFE0
00FFFC0007FFE0
00FFFC0007FFE0
00FFFC0007FFC0
00FFF80007FFC0
00FFF80007FFC0
01FFF8000FFFC0
01FFF8000FFFC0
01FFF8000FFFC0
01FFF0000FFF80
03FFF0001FFF80
03FFF0001FFF80
03FFF0001FFF80
03FFF0003FFF00
03FFE000FFFF00
07FFFFFFFFFF00
07FFFFFFFFFE00
07FFFFFFFFFE00
07FFFFFFFFFC00
07FFFFFFFFF800
0FFFFFFFFFF800
0FFFFFFFFFF000
0FFFFFFFFFC000
0FFFFFFFFF0000
0FFFFFFFFC0000
1FFF8000000000
1FFF8000000000
1FFF8000000000
1FFF0000000000
3FFF0000000000
3FFF0000000000
3FFF0000000000
3FFE0000000000
3FFE0000000000
7FFE0000000000
7FFE0000000000
7FFE0000000000
7FFC0000000000
7FFC0000000000
FFFC0000000000
FFFC0000000000
FFFC0000000000
FFF80000000000
ENDCHAR
STARTCHAR Q
ENCODING 81
SWIDTH 720 0
DWIDTH 56 0
BBX 52 63 3 -9
BITMAP
00001FFFFFC000
0001FFFFFFFC00
0007FFFFFFFF00
000FFFFFFFFF80
001FFFFFFFFFC0
003FFFFFFFFFE0
007FFFFFFFFFE0
00FFFFFFFFFFF0
00FFFFFFFFFFF0
01FFFFFFFFFFF0
01FFFE000FFFF0
01FFFC0003FFF0
03FFF80003FFF0
03FFF00003FFF0
03FFF00003FFF0
07FFE00003FFF0
07FFE00003FFF0
07FFE00003FFF0
07FFC00003FFF0
0FFFC00003FFE0
0FFFC00003FFE0
0FFFC00007FFE0
0FFF800007FFE0
0FFF800007FFE0
1FFF800007FFE0
1FFF800007FFC0
1FFF80000FFFC0
1FFF00000FFFC0
3FFF00000FFFC0
3FFF00000FFF80
3FFF00001FFF80
3FFF00001FFF80
3FFE00001FFF80
3FFE00001FFF80
7FFE00001FFF00
7FFE00003FFF00
7FFE00003FFF00
7FFC3FFF3FFF00
7FFC1FFF7FFE00
7FFC0FFFFFFE00
FFFC0FFFFFFE00
FFFC0FFFFFFC00
FFFE07FFFFFC00
FFFF07FFFFFC00
7FFFFFFFFFF800
7FFFFFFFFFF800
7FFFFFFFFFF000
7FFFFFFFFFF000
3FFFFFFFFFE000
3FFFFFFFFFC000
1FFFFFFFFF8000
0FFFFFFFFF0000
03FFFFFFFE0000
007FFFFFFF0000
00003FFFFF0000
0000001FFF8000
0000001FFF8000
0000000FFFC000
0000000FFFC000
00000007FFE000
00000007FFE000
00000003FFF000
00000003FFF000
ENDCHAR
STARTCHAR R
ENCODING 82
SWIDTH 679 0
DWIDTH 53 0
BBX 52 54 2 0
BITMAP
001FFFFFFE0000
001FFFFFFFFC00
001FFFFFFFFF00
003FFFFFFFFF80
003FFFFFFFFFC0
003FFFFFFFFFE0
003FFFFFFFFFE0
007FFFFFFFFFE0
007FFFFFFFFFF0
007FFFFFFFFFF0
007FFC007FFFF0
007FFC0007FFF0
00FFFC0003FFF0
00FFFC0003FFF0
00FFFC0003FFE0
00FFF80003FFE0
00FFF80007FFE0
01FFF80007FFE0
01FFF80007FFE0
01FFF80007FFC0
01FFF0000FFFC0
03FFF0000FFFC0
03FFF0000FFFC0
03FFF0001FFF80
03FFF0007FFF80
03FFFFFFFFFF80
07FFFFFFFFFF00
07FFFFFFFFFF00
07FFFFFFFFFE00
07FFFFFFFFFC00
07FFFFFFFFF800
0FFFFFFFFFF000
0FFFFFFFFFC000
0FFFFFFFFF0000
0FFFFFFFFF8000
0FFF800FFF8000
1FFF800FFF8000
1FFF800FFF8000
1FFF800FFF8000
1FFF000FFF8000
3FFF000FFFC000
3FFF0007FFC000
3FFF0007FFC000
3FFE0007FFC000
3FFE0007FFC000
7FFE0007FFE000
7FFE0007FFE000
7FFE0007FFE000
7FFC0007FFE000
7FFC0003FFE000
FFFC0003FFE000
FFFC0003FFF000
FFFC0003FFF000
FFF80003FFF000
ENDCHAR
STARTCHAR S
ENCODING 83
SWIDTH 631 0
DWIDTH 49 0
BBX 48 55 2 -1
BITMAP
00000FFFFFF0
0000FFFFFFFF
0003FFFFFFFF
000FFFFFFFFF
001FFFFFFFFE
003FFFFFFFFE
007FFFFFFFFE
007FFFFFFFFE
00FFFFFFFFFC
00FFFFFFFFFC
01FFFF00003C
01FFFC000000
01FFF8000000
03FFF0000000
03FFF0000000
03FFF0000000
03FFF0000000
07FFE0000000
07FFF0000000
07FFF0000000
07FFFF800000
07FFFFFE0000
07FFFFFFF800
07FFFFFFFF00
07FFFFFFFF80
07FFFFFFFFC0
03FFFFFFFFE0
03FFFFFFFFE0
01FFFFFFFFF0
00FFFFFFFFF0
003FFFFFFFF0
0001FFFFFFF0
000007FFFFF0
0000001FFFF0
00000007FFF0
00000003FFF0
00000003FFE0
00000007FFE0
00000007FFE0
00000007FFE0
00000007FFE0
0000000FFFC0
0000000FFFC0
4000003FFFC0
3FFFFFFFFF80
7FFFFFFFFF80
7FFFFFFFFF00
7FFFFFFFFF00
7FFFFFFFFE00
FFFFFFFFFC00
FFFFFFFFF800
FFFFFFFFF000
FFFFFFFFC000
7FFFFFFF0000
0001FE000000
ENDCHAR
STARTCHAR T
ENCODING 84
SWIDTH 591 0
DWIDTH 46 0
BBX 46 54 6 0
BITMAP
3FFFFFFFFFFC
3FFFFFFFFFFC
3FFFFFFFFFFC
3FFFFFFFFFFC
7FFFFFFFFFF8
7FFFFFFFFFF8
7FFFFFFFFFF8
7FFFFFFFFFF8
7FFFFFFFFFF8
FFFFFFFFFFF0
FFFFFFFFFFF0
0001FFF80000
0001FFF00000
0001FFF00000
0003FFF00000
0003FFF00000
0003FFF00000
0003FFE00000
0003FFE00000
0007FFE00000
0007FFE00000
0007FFE00000
0007FFC00000
0007FFC00000
000FFFC00000
000FFFC00000
000FFFC00000
000FFF800000
001FFF800000
001FFF800000
001FFF800000
001FFF000000
001FFF000000
003FFF000000
003FFF000000
003FFF000000
003FFE000000
003FFE000000
007FFE000000
007FFE000000
007FFE000000
007FFC000000
00FFFC000000
00FFFC000000
00FFFC000000
00FFF8000000
00FFF8000000
01FFF8000000
01FFF8000000
01FFF8000000
01FFF0000000
01FFF0000000
03FFF0000000
03FFF0000000
ENDCHAR
STARTCHAR U
ENCODING 85
SWIDTH 703 0
DWIDTH 55 0
BBX 52 55 5 -1
BITMAP
00FFF80003FFF0
01FFF80003FFE0
01FFF80003FFE0
01FFF80007FFE0
01FFF00007FFE0
03FFF00007FFC0
03FFF00007FFC0
03FFF0000FFFC0
03FFE0000FFFC0
03FFE0000FFFC0
07FFE0000FFF80
07FFE0000FFF80
07FFE0001FFF80
07FFC0001FFF80
07FFC0001FFF80
0FFFC0001FFF00
0FFFC0001FFF00
0FFFC0003FFF00
0FFF80003FFF00
1FFF80003FFF00
1FFF80003FFE00
1FFF80007FFE00
1FFF80007FFE00
1FFF00007FFE00
3FFF00007FFC00
3FFF00007FFC00
3FFF0000FFFC00
3FFE0000FFFC00
3FFE0000FFFC00
7FFE0000FFF800
7FFE0000FFF800
7FFE0001FFF800
7FFC0001FFF800
7FFC0001FFF800
FFFC0001FFF000
FFFC0003FFF000
FFFC0003FFF000
FFF80003FFF000
FFF80003FFE000
FFF80007FFE000
FFF80007FFE000
FFF8000FFFE000
FFFC000FFFC000
FFFE003FFFC000
FFFFFFFFFF8000
FFFFFFFFFF8000
FFFFFFFFFF8000
FFFFFFFFFF0000
7FFFFFFFFE0000
7FFFFFFFFE0000
3FFFFFFFFC0000
1FFFFFFFF00000
07FFFFFFC00000
01FFFFFF000000
0000FE80000000
ENDCHAR
STARTCHAR V
ENCODING 86
SWIDTH 677 0
DWIDTH 53 0
BBX 51 54 8 0
BITMAP
FFFC000007FFE0
FFFC00000FFFC0
FFFC00000FFFC0
FFFC00001FFF80
FFFC00001FFF80
FFFC00003FFF00
FFFC00003FFF00
7FFC00007FFE00
7FFC00007FFE00
7FFC0000FFFC00
7FFC0000FFFC00
7FFC0001FFF800
7FFE0001FFF800
7FFE0003FFF000
7FFE0003FFF000
7FFE0007FFE000
7FFE0007FFE000
3FFE000FFFC000
3FFE000FFFC000
3FFE001FFF8000
3FFE001FFF0000
3FFE003FFF0000
3FFE003FFE0000
3FFE007FFE0000
3FFF007FFC0000
3FFF00FFFC0000
3FFF00FFF80000
1FFF01FFF80000
1FFF01FFF00000
1FFF03FFF00000
1FFF03FFE00000
1FFF07FFE00000
1FFF07FFC00000
1FFF0FFFC00000
1FFF0FFF800000
1FFF1FFF800000
1FFF9FFF000000
0FFFBFFF000000
0FFFBFFE000000
0FFFFFFE000000
0FFFFFFC000000
0FFFFFF8000000
0FFFFFF8000000
0FFFFFF0000000
0FFFFFF0000000
0FFFFFE0000000
0FFFFFE0000000
07FFFFC0000000
07FFFFC0000000
07FFFF80000000
07FFFF80000000
07FFFF00000000
07FFFF00000000
07FFFE00000000
ENDCHAR
STARTCHAR W
ENCODING 87
SWIDTH 1003 0
DWIDTH 78 0
BBX 76 54 8 0
BITMAP
FFFC0001FFF80003FFF0
FFFC0001FFF80003FFF0
FFFC0003FFF80003FFE0
FFFC0003FFF80007FFE0
FFFC0007FFF80007FFE0
FFFC0007FFF8000FFFC0
7FFC0007FFF8000FFFC0
7FFC000FFFF8000FFF80
7FFC000FFFF8001FFF80
7FFC001FFFF8001FFF00
7FFC001FFFF8003FFF00
7FFC003FFFFC003FFE00
7FFC003FFFFC007FFE00
7FFC007FFFFC007FFE00
7FFC007FFFFC007FFC00
7FFC00FFFFFC00FFFC00
7FFC00FFFFFC00FFF800
7FFC00FFFFFC01FFF800
7FFC01FFFFFC01FFF000
7FFC01FFFFFC01FFF000
7FFC03FFFFFC03FFE000
7FFC03FFBFFC03FFE000
7FFC07FFBFFC07FFE000
7FFC07FF3FFC07FFC000
7FFC0FFF3FFC07FFC000
7FFC0FFE3FFC0FFF8000
7FFC1FFE1FFC0FFF8000
7FFC1FFC1FFC1FFF0000
7FFC1FFC1FFC1FFF0000
7FFC3FFC1FFC1FFE0000
7FFC3FF81FFC3FFE0000
7FFC7FF81FFC3FFE0000
7FFC7FF01FFC7FFC0000
7FFCFFF01FFC7FFC0000
7FFCFFE01FFC7FF80000
7FFDFFE01FFCFFF80000
7FFDFFC01FFCFFF00000
7FFFFFC01FFDFFF00000
7FFFFF801FFFFFF00000
7FFFFF801FFFFFE00000
7FFFFF001FFFFFE00000
7FFFFF001FFFFFC00000
7FFFFE001FFFFFC00000
7FFFFE001FFFFF800000
7FFFFC001FFFFF800000
7FFFFC001FFFFF000000
7FFFFC001FFFFF000000
7FFFF8000FFFFF000000
7FFFF8000FFFFE000000
7FFFF0000FFFFE000000
7FFFF0000FFFFC000000
7FFFE0000FFFFC000000
7FFFE0000FFFF8000000
7FFFC0000FFFF8000000
ENDCHAR
STARTCHAR X
ENCODING 88
SWIDTH 705 0
DWIDTH 55 0
BBX 64 54 -3 0
BITMAP
000FFFE000007FFF
000FFFE00000FFFE
0007FFF00001FFFC
0007FFF00003FFF8
0003FFF80007FFF0
0003FFF8000FFFE0
0001FFF8001FFFC0
0001FFFC003FFFC0
0000FFFC003FFF80
0000FFFE007FFF00
00007FFE00FFFE00
00007FFF01FFFC00
00003FFF03FFF800
00003FFF07FFF000
00003FFF8FFFE000
00001FFF9FFFE000
00001FFFFFFFC000
00000FFFFFFF8000
00000FFFFFFF0000
000007FFFFFE0000
000007FFFFFC0000
000003FFFFF80000
000003FFFFF00000
000001FFFFF00000
000001FFFFE00000
000000FFFFC00000
000000FFFF800000
000001FFFF000000
000003FFFF800000
000007FFFF800000
000007FFFFC00000
00000FFFFFC00000
00001FFFFFE00000
00003FFFFFE00000
00007FFFFFF00000
0000FFFFFFF00000
0001FFFFFFF80000
0003FFFFFFF80000
0003FFF9FFF80000
0007FFF1FFFC0000
000FFFE0FFFC0000
001FFFC0FFFE0000
003FFF807FFE0000
007FFF007FFF0000
00FFFE007FFF0000
00FFFE003FFF8000
01FFFC003FFF8000
03FFF8001FFFC000
07FFF0001FFFC000
0FFFE0000FFFE000
1FFFC0000FFFE000
3FFF80000FFFE000
7FFF000007FFF000
FFFF000007FFF800
ENDCHAR
STARTCHAR Y
ENCODING 89
SWIDTH 654 0
DWIDTH 51 0
BBX 51 54 7 0
BITMAP
FFFC00000FFFE0
7FFC00000FFFC0
7FFE00001FFF80
7FFE00003FFF00
3FFE00003FFF00
3FFE00007FFE00
3FFF0000FFFC00
3FFF0000FFF800
1FFF0001FFF800
1FFF0003FFF000
1FFF8007FFE000
0FFF8007FFC000
0FFF800FFFC000
0FFFC01FFF8000
07FFC01FFF0000
07FFC03FFF0000
07FFC07FFE0000
03FFE0FFFC0000
03FFE0FFF80000
03FFE1FFF80000
01FFF3FFF00000
01FFF3FFE00000
01FFF7FFC00000
01FFFFFFC00000
00FFFFFF800000
00FFFFFF000000
00FFFFFE000000
007FFFFE000000
007FFFFC000000
007FFFF8000000
003FFFF0000000
003FFFF0000000
003FFFE0000000
001FFFC0000000
001FFF80000000
001FFF80000000
001FFF80000000
001FFF00000000
003FFF00000000
003FFF00000000
003FFF00000000
003FFE00000000
003FFE00000000
007FFE00000000
007FFE00000000
007FFE00000000
007FFC00000000
007FFC00000000
00FFFC00000000
00FFFC00000000
00FFFC00000000
00FFF800000000
01FFF800000000
01FFF800000000
ENDCHAR
STARTCHAR Z
ENCODING 90
SWIDTH 628 0
DWIDTH 49 0
BBX 53 54 -1 0
BITMAP
000FFFFFFFFFF8
000FFFFFFFFFF8
000FFFFFFFFFF8
000FFFFFFFFFF8
001FFFFFFFFFF0
001FFFFFFFFFF0
001FFFFFFFFFF0
001FFFFFFFFFF0
001FFFFFFFFFE0
003FFFFFFFFFE0
003FFFFFFFFFE0
00000000FFFFC0
00000000FFFF80
00000001FFFF00
00000003FFFE00
00000007FFFC00
0000000FFFF800
0000001FFFF000
0000003FFFE000
0000007FFFC000
000000FFFF8000
000001FFFF0000
000003FFFE0000
000007FFFC0000
00000FFFFC0000
00001FFFF80000
00001FFFF00000
00003FFFE00000
00007FFFC00000
0000FFFF800000
0001FFFF000000
0003FFFE000000
0007FFFC000000
000FFFF8000000
001FFFF0000000
003FFFE0000000
007FFFC0000000
00FFFF80000000
01FFFF00000000
03FFFF00000000
03FFFE00000000
07FFFC00000000
0FFFF800000000
1FFFF000000000
3FFFFFFFFFF000
3FFFFFFFFFF000
3FFFFFFFFFF000
7FFFFFFFFFE000
7FFFFFFFFFE000
7FFFFFFFFFE000
7FFFFFFFFFE000
7FFFFFFFFFC000
FFFFFFFFFFC000
FFFFFFFFFFC000
ENDCHAR
STARTCHAR bracketleft
ENCODING 91
SWIDTH 384 0
DWIDTH 30 0
BBX 35 70 0 -12
BITMAP
0003FFFFE0
0003FFFFE0
0003FFFFC0
0003FFFFC0
0007FFFFC0
0007FFFFC0
0007FFFFC0
0007FFFF80
0007FF0000
000FFE0000
000FFE0000
000FFE0000
000FFE0000
000FFE0000
001FFC0000
001FFC0000
001FFC0000
001FFC0000
001FF80000
003FF80000
003FF80000
003FF80000
003FF80000
007FF00000
007FF00000
007FF00000
007FF00000
007FF00000
00FFE00000
00FFE00000
00FFE00000
00FFE00000
00FFE00000
01FFC00000
01FFC00000
01FFC00000
01FFC00000
03FF800000
03FF800000
03FF800000
03FF800000
03FF800000
07FF000000
07FF000000
07FF000000
07FF000000
07FF000000
0FFE000000
0FFE000000
0FFE000000
0FFE000000
0FFE000000
1FFC000000
1FFC000000
1FFC000000
1FFC000000
3FF8000000
3FF8000000
3FF8000000
3FF8000000
3FF8000000
7FF0000000
7FFFFC0000
7FFFF80000
7FFFF80000
7FFFF80000
FFFFF80000
FFFFF80000
FFFFF00000
FFFFF00000
ENDCHAR
STARTCHAR backslash
ENCODING 92
SWIDTH 412 0
DWIDTH 32 0
BBX 20 62 8 -4
BITMAP
FFC000
FFE000
FFE000
FFE000
7FE000
7FE000
7FE000
7FF000
7FF000
7FF000
3FF000
3FF000
3FF000
3FF800
3FF800
3FF800
1FF800
1FF800
1FF800
1FF800
1FFC00
1FFC00
1FFC00
0FFC00
0FFC00
0FFC00
0FFE00
0FFE00
0FFE00
07FE00
07FE00
07FE00
07FE00
07FF00
07FF00
03FF00
03FF00
03FF00
03FF00
03FF80
03FF80
03FF80
01FF80
01FF80
01FF80
01FF80
01FFC0
01FFC0
00FFC0
00FFC0
00FFC0
00FFC0
00FFE0
00FFE0
00FFE0
007FE0
007FE0
007FE0
007FE0
007FF0
007FF0
003FF0
ENDCHAR
STARTCHAR bracketright
ENCODING 93
SWIDTH 384 0
DWIDTH 30 0
BBX 35 70 -4 -12
BITMAP
0001FFFFE0
0001FFFFE0
0003FFFFE0
0003FFFFE0
0003FFFFC0
0003FFFFC0
0003FFFFC0
0007FFFFC0
000001FFC0
000003FF80
000003FF80
000003FF80
000003FF80
000003FF80
000007FF00
000007FF00
000007FF00
000007FF00
000007FE00
00000FFE00
00000FFE00
00000FFE00
00000FFE00
00001FFC00
00001FFC00
00001FFC00
00001FFC00
00001FFC00
00003FF800
00003FF800
00003FF800
00003FF800
00003FF800
00007FF000
00007FF000
00007FF000
00007FF000
0000FFE000
0000FFE000
0000FFE000
0000FFE000
0000FFE000
0001FFC000
0001FFC000
0001FFC000
0001FFC000
0001FFC000
0003FF8000
0003FF8000
0003FF8000
0003FF8000
0003FF0000
0007FF0000
0007FF0000
0007FF0000
0007FF0000
000FFE0000
000FFE0000
000FFE0000
000FFE0000
000FFE0000
001FFC0000
3FFFFC0000
3FFFFC0000
7FFFFC0000
7FFFFC0000
7FFFF80000
7FFFF80000
7FFFF80000
FFFFF80000
ENDCHAR
STARTCHAR asciicircum
ENCODING 94
SWIDTH 440 0
DWIDTH 34 0
BBX 31 24 5 34
BITMAP
0000FF80
0001FFC0
0003FFC0
0003FFC0
0007FFC0
000FFFE0
000FFFE0
001FFFE0
003FEFE0
003FCFF0
007F8FF0
00FF8FF0
00FF0FF0
01FF07F8
03FE07F8
03FC07F8
07FC07F8
0FF807FC
0FF003FC
1FF003FC
3FE003FC
7FE003FE
7FC001FE
FF8001FE
ENDCHAR
STARTCHAR underscore
ENCODING 95
SWIDTH 388 0
DWIDTH 30 0
BBX 32 8 -6 -14
BITMAP
3FFFFFFF
3FFFFFFF
7FFFFFFF
7FFFFFFE
7FFFFFFE
7FFFFFFE
7FFFFFFE
FFFFFFFE
ENDCHAR
STARTCHAR grave
ENCODING 96
SWIDTH 248 0
DWIDTH 19 0
BBX 17 11 8 45
BITMAP
FFF000
7FF000
7FF800
3FF800
1FFC00
0FFC00
07FE00
07FE00
03FF00
01FF00
00FF80
ENDCHAR
STARTCHAR a
ENCODING 97
SWIDTH 589 0
DWIDTH 46 0
BBX 44 41 2 -1
BITMAP
000FFF80FFF0
003FFFE1FFF0
007FFFF1FFE0
00FFFFF9FFE0
01FFFFFFFFE0
03FFFFFFFFE0
03FFFFFFFFC0
07FFFFFFFFC0
07FFFFFFFFC0
0FFFFFFFFFC0
0FFFC01FFFC0
0FFF800FFF80
1FFF000FFF80
1FFF000FFF80
1FFE000FFF80
3FFE000FFF80
3FFE000FFF00
3FFE000FFF00
3FFC001FFF00
3FFC001FFF00
7FFC001FFF00
7FFC001FFE00
7FFC003FFE00
7FF8003FFE00
7FF8003FFE00
7FF8003FFC00
FFF8007FFC00
FFF8007FFC00
FFF800FFFC00
FFF801FFFC00
FFFF0FFFF800
FFFFFFFFF800
FFFFFFFFF800
FFFFFFFFF800
7FFFFFFFF800
7FFFFEFFF000
7FFFFEFFF000
3FFFFCFFF000
1FFFF0FFF000
07FFE1FFE000
003800000000
ENDCHAR
STARTCHAR b
ENCODING 98
SWIDTH 598 0
DWIDTH 47 0
BBX 44 59 1 -1
BITMAP
000FFF800000
000FFF800000
000FFF000000
000FFF000000
001FFF000000
001FFF000000
001FFF000000
001FFE000000
001FFE000000
003FFE000000
003FFE000000
003FFE000000
003FFC000000
003FFC000000
007FFC000000
007FFC000000
007FF8000000
007FF8000000
00FFF83FFC00
00FFF8FFFF00
00FFF9FFFF80
00FFF3FFFFC0
00FFF7FFFFE0
01FFFFFFFFE0
01FFFFFFFFE0
01FFFFFFFFF0
01FFFFFFFFF0
01FFFFFFFFF0
03FFF803FFF0
03FFF001FFF0
03FFE001FFF0
03FFE001FFF0
03FFC001FFE0
07FFC001FFE0
07FFC001FFE0
07FFC003FFE0
07FF8003FFE0
0FFF8003FFE0
0FFF8003FFC0
0FFF8003FFC0
0FFF0007FFC0
0FFF0007FFC0
1FFF0007FFC0
1FFF0007FF80
1FFF000FFF80
1FFF000FFF80
1FFF001FFF00
3FFF801FFF00
3FFFE1FFFF00
3FFFFFFFFE00
3FFFFFFFFE00
7FFFFFFFFC00
7FFFFFFFFC00
7FFBFFFFF800
7FF9FFFFF000
7FF9FFFFE000
FFF0FFFFC000
FFF03FFF0000
000000E00000
ENDCHAR
STARTCHAR c
ENCODING 99
SWIDTH 473 0
DWIDTH 37 0
BBX 36 41 2 -1
BITMAP
0003FFFFC0
001FFFFFF0
003FFFFFE0
00FFFFFFE0
01FFFFFFE0
01FFFFFFE0
03FFFFFFC0
07FFFFFFC0
07FFFFFFC0
0FFFF00040
0FFFC00000
0FFF800000
1FFF800000
1FFF000000
1FFF000000
1FFF000000
3FFE000000
3FFE000000
3FFE000000
3FFE000000
3FFC000000
7FFC000000
7FFC000000
7FFC000000
7FFC000000
7FF8000000
FFF8000000
FFF8000000
FFF8000000
FFFC000000
FFFE000400
FFFFFFF800
FFFFFFF800
7FFFFFF800
7FFFFFF800
7FFFFFF800
3FFFFFF000
1FFFFFF000
0FFFFFF000
01FFFFE000
0003C00000
ENDCHAR
STARTCHAR d
ENCODING 100
SWIDTH 598 0
DWIDTH 47 0
BBX 48 59 2 -1
BITMAP
000000001FFF
000000001FFE
000000001FFE
000000003FFE
000000003FFE
000000003FFE
000000003FFC
000000003FFC
000000007FFC
000000007FFC
000000007FFC
000000007FF8
000000007FF8
00000000FFF8
00000000FFF8
00000000FFF0
00000000FFF0
00000000FFF0
000FFF81FFF0
003FFFE1FFF0
007FFFF1FFE0
00FFFFF9FFE0
01FFFFFFFFE0
03FFFFFFFFE0
03FFFFFFFFE0
07FFFFFFFFC0
07FFFFFFFFC0
0FFFFFFFFFC0
0FFFC01FFFC0
0FFF800FFFC0
1FFF000FFF80
1FFF000FFF80
1FFF000FFF80
1FFE000FFF80
3FFE000FFF00
3FFE000FFF00
3FFC000FFF00
3FFC001FFF00
7FFC001FFF00
7FFC001FFE00
7FFC001FFE00
7FF8003FFE00
7FF8003FFE00
7FF8003FFE00
7FF8007FFC00
FFF8007FFC00
FFF800FFFC00
FFFC01FFFC00
FFFF8FFFF800
FFFFFFFFF800
FFFFFFFFF800
7FFFFFFFF800
7FFFFFFFF800
7FFFFEFFF000
3FFFFEFFF000
3FFFFCFFF000
1FFFF0FFF000
07FFE0FFF000
003A01000000
ENDCHAR
STARTCHAR e
ENCODING 101
SWIDTH 568 0
DWIDTH 44 0
BBX 40 41 2 -1
BITMAP
0001FFFFC0
000FFFFFF0
003FFFFFFC
007FFFFFFE
00FFFFFFFE
01FFFFFFFE
03FFFFFFFF
03FFFFFFFF
07FFFFFFFF
07FFC01FFF
0FFF800FFF
0FFF000FFF
0FFF000FFF
1FFF000FFE
1FFF000FFE
1FFE001FFE
1FFE001FFE
3FFFFFFFFE
3FFFFFFFFC
3FFFFFFFFC
3FFFFFFFFC
3FFFFFFFFC
7FFFFFFFF8
7FFC000000
7FF8000000
7FF8000000
7FF8000000
7FF8000000
7FF8000000
7FF8000000
FFFC000000
7FFFFFFFE0
7FFFFFFFC0
7FFFFFFFC0
7FFFFFFFC0
7FFFFFFFC0
3FFFFFFFC0
1FFFFFFF80
0FFFFFFF80
01FFFFFF00
0005FE0000
ENDCHAR
STARTCHAR f
ENCODING 102
SWIDTH 431 0
DWIDTH 34 0
BBX 45 74 -5 -16
BITMAP
00000000FFF8
0000001FFFF8
0000007FFFF0
000000FFFFF0
000001FFFFF0
000001FFFFF0
000003FFFFF0
000003FFFFE0
000007FFFFE0
000007FFE000
000007FF8000
00000FFF8000
00000FFF8000
00000FFF0000
00001FFF0000
00001FFF0000
00001FFF0000
00001FFF0000
001FFFFFFF80
001FFFFFFF80
001FFFFFFF00
001FFFFFFF00
003FFFFFFF00
003FFFFFFF00
003FFFFFFF00
003FFFFFFE00
007FFFFFFE00
007FFFFFFE00
0000FFF80000
0000FFF80000
0000FFF80000
0000FFF80000
0000FFF00000
0001FFF00000
0001FFF00000
0001FFF00000
0001FFE00000
0001FFE00000
0003FFE00000
0003FFE00000
0003FFE00000
0003FFC00000
0007FFC00000
0007FFC00000
0007FFC00000
0007FFC00000
0007FF800000
000FFF800000
000FFF800000
000FFF800000
000FFF800000
000FFF000000
001FFF000000
001FFF000000
001FFF000000
001FFE000000
001FFE000000
003FFE000000
003FFE000000
003FFE000000
003FFC000000
007FFC000000
007FFC000000
007FFC000000
01FFF8000000
3FFFF8000000
3FFFF8000000
3FFFF0000000
7FFFF0000000
7FFFE0000000
7FFFC0000000
7FFF80000000
7FFC00000000
E00000000000
ENDCHAR
STARTCHAR g
ENCODING 103
SWIDTH 596 0
DWIDTH 46 0
BBX 46 56 0 -16
BITMAP
0000FFF03FFC
0007FFF87FFC
000FFFFC7FF8
001FFFFE7FF8
003FFFFF7FF8
007FFFFFFFF8
007FFFFFFFF0
00FFFFFFFFF0
00FFFFFFFFF0
01FFFFFFFFF0
01FFF80FFFF0
03FFE003FFE0
03FFE003FFE0
03FFC003FFE0
03FFC003FFE0
07FFC003FFE0
07FFC003FFC0
07FF8007FFC0
07FF8007FFC0
0FFF8007FFC0
0FFF8007FF80
0FFF0007FF80
0FFF000FFF80
0FFF000FFF80
1FFF000FFF80
1FFF001FFF00
1FFF001FFF00
1FFF003FFF00
1FFF007FFF00
1FFFE1FFFF00
1FFFFFFFFE00
1FFFFFFFFE00
1FFFFFFFFE00
1FFFFFFFFE00
1FFFFFFFFE00
0FFFFFBFFC00
0FFFFF3FFC00
07FFFE7FFC00
03FFF87FFC00
007F807FF800
0000007FF800
000000FFF800
000000FFF800
000001FFF000
000001FFF000
000003FFF000
3803FFFFE000
3FFFFFFFE000
7FFFFFFFC000
7FFFFFFF8000
7FFFFFFF8000
7FFFFFFF0000
FFFFFFFC0000
FFFFFFF80000
FFFFFFC00000
1FFFFC000000
ENDCHAR
STARTCHAR h
ENCODING 104
SWIDTH 603 0
DWIDTH 47 0
BBX 43 58 1 0
BITMAP
000FFF800000
000FFF800000
000FFF000000
000FFF000000
001FFF000000
001FFF000000
001FFE000000
001FFE000000
003FFE000000
003FFE000000
003FFE000000
003FFC000000
003FFC000000
007FFC000000
007FFC000000
007FFC000000
007FF8000000
007FF8000000
00FFF83FFE00
00FFF8FFFF80
00FFF1FFFFC0
00FFF3FFFFC0
00FFF7FFFFE0
01FFFFFFFFE0
01FFFFFFFFE0
01FFFFFFFFE0
01FFFFFFFFE0
03FFFFFFFFE0
03FFF807FFE0
03FFF003FFE0
03FFE003FFE0
03FFE003FFE0
07FFC003FFE0
07FFC003FFC0
07FFC003FFC0
07FF8007FFC0
07FF8007FFC0
0FFF8007FFC0
0FFF8007FF80
0FFF8007FF80
0FFF000FFF80
1FFF000FFF80
1FFF000FFF80
1FFF000FFF00
1FFE000FFF00
1FFE001FFF00
3FFE001FFF00
3FFE001FFE00
3FFE001FFE00
3FFC001FFE00
3FFC003FFE00
7FFC003FFE00
7FFC003FFC00
7FF8003FFC00
7FF8007FFC00
7FF8007FFC00
FFF8007FFC00
FFF8007FF800
ENDCHAR
STARTCHAR i
ENCODING 105
SWIDTH 289 0
DWIDTH 23 0
BBX 25 58 1 0
BITMAP
000FFF80
000FFF80
000FFF80
001FFF00
001FFF00
001FFF00
001FFF00
001FFF00
003FFE00
003FFE00
00000000
00000000
00000000
00000000
00000000
00000000
00000000
00000000
00FFF800
00FFF800
00FFF800
00FFF000
00FFF000
01FFF000
01FFF000
01FFF000
01FFE000
03FFE000
03FFE000
03FFE000
03FFE000
03FFC000
07FFC000
07FFC000
07FFC000
07FFC000
07FF8000
0FFF8000
0FFF8000
0FFF8000
0FFF0000
0FFF0000
1FFF0000
1FFF0000
1FFF0000
1FFE0000
3FFE0000
3FFE0000
3FFE0000
3FFE0000
3FFC0000
7FFC0000
7FFC0000
7FFC0000
7FF80000
7FF80000
FFF80000
FFF80000
ENDCHAR
STARTCHAR j
ENCODING 106
SWIDTH 296 0
DWIDTH 23 0
BBX 35 74 -8 -16
BITMAP
000003FFE0
000007FFC0
000007FFC0
000007FFC0
000007FFC0
000007FF80
00000FFF80
00000FFF80
00000FFF80
00000FFF80
0000000000
0000000000
0000000000
0000000000
0000000000
0000000000
0000000000
0000000000
00003FFE00
00003FFC00
00007FFC00
00007FFC00
00007FFC00
00007FFC00
00007FF800
0000FFF800
0000FFF800
0000FFF800
0000FFF000
0001FFF000
0001FFF000
0001FFF000
0001FFF000
0001FFE000
0003FFE000
0003FFE000
0003FFE000
0003FFE000
0003FFC000
0007FFC000
0007FFC000
0007FFC000
0007FFC000
0007FF8000
000FFF8000
000FFF8000
000FFF8000
000FFF0000
001FFF0000
001FFF0000
001FFF0000
001FFF0000
001FFE0000
003FFE0000
003FFE0000
003FFE0000
003FFE0000
003FFC0000
007FFC0000
007FFC0000
007FFC0000
007FF80000
00FFF80000
00FFF80000
03FFF80000
7FFFF00000
7FFFF00000
7FFFE00000
7FFFE00000
7FFFC00000
FFFF800000
FFFF000000
FFFC000000
FA00000000
ENDCHAR
STARTCHAR k
ENCODING 107
SWIDTH 595 0
DWIDTH 46 0
BBX 48 58 1 0
BITMAP
000FFF800000
000FFF800000
000FFF000000
000FFF000000
001FFF000000
001FFF000000
001FFE000000
001FFE000000
003FFE000000
003FFE000000
003FFE000000
003FFC000000
003FFC000000
007FFC000000
007FFC000000
007FFC000000
007FF8000000
007FF8000000
00FFF8003FFF
00FFF8007FFE
00FFF000FFFC
00FFF001FFF8
00FFF003FFF0
01FFF007FFE0
01FFF00FFFC0
01FFE00FFF80
01FFE01FFF00
03FFE03FFE00
03FFE07FFC00
03FFE0FFF800
03FFC1FFF000
03FFC3FFF000
07FFC7FFE000
07FFCFFFC000
07FFFFFF8000
07FFFFFF0000
07FFFFFE0000
0FFFFFFC0000
0FFFFFFC0000
0FFFFFFC0000
0FFFFFFE0000
0FFFFFFE0000
1FFF1FFF0000
1FFF1FFF0000
1FFE0FFF8000
1FFE0FFFC000
3FFE07FFC000
3FFE07FFE000
3FFE03FFE000
3FFC03FFF000
3FFC01FFF000
7FFC01FFF800
7FFC00FFF800
7FFC00FFFC00
7FF8007FFC00
7FF8007FFE00
FFF8003FFE00
FFF8003FFF00
ENDCHAR
STARTCHAR l
ENCODING 108
SWIDTH 286 0
DWIDTH 22 0
BBX 25 58 1 0
BITMAP
000FFF80
000FFF80
000FFF00
000FFF00
001FFF00
001FFF00
001FFF00
001FFE00
003FFE00
003FFE00
003FFE00
003FFE00
003FFC00
007FFC00
007FFC00
007FFC00
007FFC00
007FF800
00FFF800
00FFF800
00FFF800
00FFF000
00FFF000
01FFF000
01FFF000
01FFF000
01FFE000
03FFE000
03FFE000
03FFE000
03FFE000
03FFC000
07FFC000
07FFC000
07FFC000
07FFC000
07FF8000
0FFF8000
0FFF8000
0FFF8000
0FFF0000
0FFF0000
1FFF0000
1FFF0000
1FFF0000
1FFE0000
3FFE0000
3FFE0000
3FFE0000
3FFE0000
3FFC0000
7FFC0000
7FFC0000
7FFC0000
7FF80000
7FF80000
FFF80000
FFF80000
ENDCHAR
STARTCHAR m
ENCODING 109
SWIDTH 888 0
DWIDTH 69 0
BBX 66 40 1 0
BITMAP
00FFF01FFC003FF800
00FFF0FFFF01FFFE00
00FFF1FFFF83FFFF00
00FFF3FFFFCFFFFF80
00FFF7FFFFCFFFFF80
01FFFFFFFFFFFFFF80
01FFFFFFFFFFFFFF80
01FFFFFFFFFFFFFFC0
01FFFFFFFFFFFFFFC0
03FFFFFFFFFFFFFF80
03FFF80FFFF00FFF80
03FFF007FFE00FFF80
03FFE007FFC00FFF80
03FFE007FFC00FFF80
07FFC007FFC00FFF80
07FFC007FF800FFF80
07FFC00FFF800FFF00
07FF800FFF800FFF00
07FF800FFF801FFF00
0FFF800FFF001FFF00
0FFF800FFF001FFF00
0FFF801FFF001FFE00
0FFF001FFF001FFE00
1FFF001FFE003FFE00
1FFF001FFE003FFE00
1FFF001FFE003FFC00
1FFE003FFE003FFC00
1FFE003FFE003FFC00
3FFE003FFC007FFC00
3FFE003FFC007FFC00
3FFE007FFC007FF800
3FFC007FFC007FF800
3FFC007FFC00FFF800
7FFC007FF800FFF800
7FFC007FF800FFF800
7FF800FFF800FFF000
7FF800FFF800FFF000
7FF800FFF001FFF000
FFF800FFF001FFF000
FFF801FFF001FFE000
ENDCHAR
STARTCHAR n
ENCODING 110
SWIDTH 603 0
DWIDTH 47 0
BBX 43 40 1 0
BITMAP
00FFF01FFE00
00FFF0FFFF80
00FFF1FFFFC0
00FFF3FFFFC0
00FFF7FFFFE0
01FFFFFFFFE0
01FFFFFFFFE0
01FFFFFFFFE0
01FFFFFFFFE0
03FFFFFFFFE0
03FFF807FFE0
03FFF003FFE0
03FFE003FFE0
03FFE003FFE0
07FFC003FFE0
07FFC003FFC0
07FFC003FFC0
07FF8007FFC0
07FF8007FFC0
0FFF8007FFC0
0FFF8007FF80
0FFF8007FF80
0FFF000FFF80
1FFF000FFF80
1FFF000FFF80
1FFF000FFF00
1FFE000FFF00
1FFE001FFF00
3FFE001FFF00
3FFE001FFE00
3FFE001FFE00
3FFC001FFE00
3FFC003FFE00
7FFC003FFE00
7FFC003FFC00
7FF8003FFC00
7FF8007FFC00
7FF8007FFC00
FFF8007FFC00
FFF8007FF800
ENDCHAR
STARTCHAR o
ENCODING 111
SWIDTH 573 0
DWIDTH 45 0
BBX 41 41 2 -1
BITMAP
0007FFFFC000
003FFFFFF800
00FFFFFFFE00
01FFFFFFFF00
03FFFFFFFF00
03FFFFFFFF80
07FFFFFFFF80
07FFFFFFFF80
0FFFFFFFFF80
0FFFC01FFF80
0FFF800FFF80
1FFF000FFF80
1FFF000FFF80
1FFE000FFF80
3FFE000FFF80
3FFE000FFF80
3FFE000FFF00
3FFC000FFF00
3FFC001FFF00
7FFC001FFF00
7FFC001FFF00
7FF8001FFE00
7FF8001FFE00
7FF8003FFE00
FFF8003FFE00
FFF8003FFC00
FFF8003FFC00
FFF0007FFC00
FFF0007FFC00
FFF800FFF800
FFF801FFF800
FFFFFFFFF800
FFFFFFFFF000
FFFFFFFFF000
FFFFFFFFE000
FFFFFFFFE000
7FFFFFFFC000
3FFFFFFF8000
1FFFFFFE0000
03FFFFF80000
0003FC000000
ENDCHAR
STARTCHAR p
ENCODING 112
SWIDTH 598 0
DWIDTH 47 0
BBX 47 56 -2 -16
BITMAP
000FFF07FFC0
001FFE1FFFF0
001FFE3FFFF8
001FFE7FFFF8
001FFEFFFFFC
001FFFFFFFFC
003FFFFFFFFE
003FFFFFFFFE
003FFFFFFFFE
003FFFFFFFFE
007FFF007FFE
007FFE003FFE
007FFC003FFE
007FFC003FFE
007FFC003FFE
00FFF8003FFC
00FFF8003FFC
00FFF8003FFC
00FFF0007FFC
00FFF0007FFC
01FFF0007FFC
01FFF0007FF8
01FFE000FFF8
01FFE000FFF8
01FFE000FFF8
03FFE000FFF0
03FFE001FFF0
03FFE001FFF0
03FFE001FFE0
07FFF003FFE0
07FFFE3FFFE0
07FFFFFFFFC0
07FFFFFFFFC0
07FFFFFFFF80
0FFFFFFFFF80
0FFFFFFFFF00
0FFF3FFFFE00
0FFF3FFFFC00
0FFF0FFFF800
1FFF07FFE000
1FFF001E0000
1FFE00000000
1FFE00000000
1FFE00000000
3FFE00000000
3FFE00000000
3FFC00000000
3FFC00000000
7FFC00000000
7FFC00000000
7FFC00000000
7FF800000000
7FF800000000
FFF800000000
FFF800000000
FFF000000000
ENDCHAR
STARTCHAR q
ENCODING 113
SWIDTH 585 0
DWIDTH 46 0
BBX 43 56 2 -16
BITMAP
000FFF01FFE0
003FFFC1FFE0
007FFFE3FFC0
00FFFFF3FFC0
01FFFFFBFFC0
03FFFFFFFFC0
03FFFFFFFF80
07FFFFFFFF80
07FFFFFFFF80
0FFFFFFFFF80
0FFFC03FFF80
1FFF801FFF00
1FFF001FFF00
1FFE001FFF00
1FFE001FFF00
3FFE001FFF00
3FFE001FFE00
3FFC003FFE00
3FFC003FFE00
7FFC003FFE00
7FFC003FFC00
7FF8003FFC00
7FF8007FFC00
7FF8007FFC00
FFF8007FFC00
FFF8007FF800
FFF800FFF800
FFF800FFF800
FFF801FFF800
FFF803FFF800
FFFFFFFFF000
FFFFFFFFF000
FFFFFFFFF000
FFFFFFFFF000
FFFFFFFFE000
7FFFFFFFE000
7FFFFDFFE000
3FFFFBFFE000
1FFFE3FFE000
0FFF83FFC000
007003FFC000
000003FFC000
000007FFC000
000007FFC000
000007FF8000
000007FF8000
00000FFF8000
00000FFF8000
00000FFF8000
00000FFF0000
00000FFF0000
00001FFF0000
00001FFF0000
00001FFE0000
00001FFE0000
00003FFE0000
ENDCHAR
STARTCHAR r
ENCODING 114
SWIDTH 416 0
DWIDTH 32 0
BBX 34 40 1 0
BITMAP
00FFF01FC0
00FFF07FC0
00FFF0FFC0
00FFF1FF80
00FFF3FF80
01FFF7FF80
01FFEFFF80
01FFFFFF80
01FFFFFF00
03FFFFFF00
03FFFFFF00
03FFFFC000
03FFFE0000
03FFF80000
07FFF00000
07FFE00000
07FFE00000
07FFC00000
07FFC00000
0FFF800000
0FFF800000
0FFF800000
0FFF000000
1FFF000000
1FFF000000
1FFF000000
1FFE000000
1FFE000000
3FFE000000
3FFE000000
3FFE000000
3FFC000000
3FFC000000
7FFC000000
7FFC000000
7FFC000000
7FF8000000
7FF8000000
FFF8000000
FFF8000000
ENDCHAR
STARTCHAR s
ENCODING 115
SWIDTH 519 0
DWIDTH 40 0
BBX 38 41 1 -1
BITMAP
0007FFFFF8
001FFFFFFC
007FFFFFFC
00FFFFFFFC
01FFFFFFF8
01FFFFFFF8
03FFFFFFF8
03FFFFFFF8
07FFFFFFF8
07FFC00000
07FF800000
0FFF000000
0FFF000000
0FFF000000
0FFF800000
0FFFFF0000
0FFFFFFC00
0FFFFFFF80
0FFFFFFFC0
0FFFFFFFE0
0FFFFFFFE0
07FFFFFFE0
03FFFFFFE0
007FFFFFE0
0000FFFFE0
000003FFE0
000001FFE0
000001FFE0
000001FFC0
000003FFC0
000007FFC0
7F007FFFC0
7FFFFFFF80
7FFFFFFF80
7FFFFFFF00
7FFFFFFF00
FFFFFFFE00
FFFFFFFC00
FFFFFFF800
FFFFFFE000
000FE80000
ENDCHAR
STARTCHAR t
ENCODING 116
SWIDTH 422 0
DWIDTH 33 0
BBX 30 51 4 0
BITMAP
001FFF00
001FFF00
001FFE00
003FFE00
003FFE00
003FFE00
003FFE00
003FFC00
007FFC00
007FFC00
007FFC00
7FFFFFFC
7FFFFFFC
7FFFFFFC
7FFFFFFC
7FFFFFFC
FFFFFFF8
FFFFFFF8
FFFFFFF8
FFFFFFF8
FFFFFFF0
01FFE000
03FFE000
03FFE000
03FFE000
03FFE000
03FFC000
07FFC000
07FFC000
07FFC000
07FFC000
07FF8000
0FFF8000
0FFF8000
0FFF8000
0FFF0000
1FFF0000
1FFF0000
1FFF0000
1FFF0000
1FFF0000
1FFF8000
1FFFFF00
1FFFFF00
1FFFFF00
1FFFFF00
1FFFFE00
0FFFFE00
0FFFFE00
03FFFE00
003FFE00
ENDCHAR
STARTCHAR u
ENCODING 117
SWIDTH 591 0
DWIDTH 46 0
BBX 43 41 3 -1
BITMAP
03FFC003FFE0
07FFC003FFE0
07FFC003FFC0
07FFC003FFC0
07FF8003FFC0
07FF8007FFC0
0FFF8007FFC0
0FFF8007FF80
0FFF8007FF80
0FFF000FFF80
0FFF000FFF80
1FFF000FFF80
1FFF000FFF00
1FFE000FFF00
1FFE001FFF00
3FFE001FFF00
3FFE001FFF00
3FFE001FFE00
3FFC003FFE00
3FFC003FFE00
7FFC003FFE00
7FFC003FFC00
7FFC003FFC00
7FF8007FFC00
7FF8007FFC00
FFF8007FFC00
FFF800FFF800
FFF800FFF800
FFF801FFF800
FFF803FFF800
FFFF9FFFF800
FFFFFFFFF000
FFFFFFFFF000
FFFFFFFFF000
FFFFFFFFF000
FFFFFDFFE000
7FFFF9FFE000
7FFFF1FFE000
3FFFE1FFE000
0FFF81FFE000
007800000000
ENDCHAR
STARTCHAR v
ENCODING 118
SWIDTH 561 0
DWIDTH 44 0
BBX 41 40 6 0
BITMAP
FFF0000FFF80
FFF0000FFF80
FFF0001FFF00
FFF0001FFE00
FFF0003FFE00
FFF0003FFC00
FFF0007FFC00
FFF0007FF800
FFF000FFF800
7FF800FFF000
7FF801FFF000
7FF801FFE000
7FF803FFE000
7FF803FFC000
7FF807FFC000
7FF807FF8000
7FF80FFF8000
7FF80FFF0000
7FF81FFF0000
3FF81FFE0000
3FF81FFE0000
3FF83FFC0000
3FF83FFC0000
3FF87FF80000
3FFC7FF00000
3FFCFFF00000
3FFCFFE00000
3FFDFFE00000
3FFDFFC00000
3FFFFFC00000
1FFFFF800000
1FFFFF800000
1FFFFF000000
1FFFFF000000
1FFFFE000000
1FFFFE000000
1FFFFC000000
1FFFFC000000
1FFFF8000000
1FFFF8000000
ENDCHAR
STARTCHAR w
ENCODING 119
SWIDTH 855 0
DWIDTH 67 0
BBX 64 40 6 0
BITMAP
FFF0003FFC001FFF
FFF0007FFC001FFE
FFF0007FFC001FFE
FFF000FFFC003FFC
FFF000FFFC003FFC
FFF000FFFC007FF8
FFF001FFFC007FF8
FFF001FFFC00FFF8
FFF003FFFC00FFF0
FFF003FFFC00FFF0
7FF007FFFC01FFE0
7FF007FFFC01FFE0
7FF00FFFFC03FFC0
7FF00FFFFC03FFC0
7FF01FFFFC07FF80
7FF01FFFFC07FF80
7FF03FFFFC07FF00
7FF03FFFFE0FFF00
7FF07FFFFE0FFE00
7FF07FEFFE1FFE00
7FF0FFE7FE1FFC00
7FF0FFC7FE1FFC00
7FF1FFC7FE3FF800
7FF1FF87FE3FF800
7FF3FF87FE7FF800
7FF3FF07FE7FF000
7FF3FF07FEFFF000
7FF7FE07FEFFE000
7FFFFE07FFFFE000
7FFFFC07FFFFC000
7FFFFC07FFFFC000
7FFFF807FFFF8000
7FFFF807FFFF8000
3FFFF007FFFF0000
3FFFF007FFFF0000
3FFFE003FFFE0000
3FFFE003FFFE0000
3FFFC003FFFC0000
3FFFC003FFFC0000
3FFF8003FFF80000
ENDCHAR
STARTCHAR x
ENCODING 120
SWIDTH 589 0
DWIDTH 46 0
BBX 52 40 -3 0
BITMAP
007FFE0003FFF0
003FFE0007FFE0
003FFF000FFFC0
001FFF000FFF80
001FFF001FFF00
000FFF803FFE00
0007FF807FFC00
0007FFC0FFF800
0003FFC1FFF000
0003FFE3FFE000
0001FFE3FFE000
0001FFF7FFC000
0000FFFFFF8000
0000FFFFFF0000
00007FFFFE0000
00007FFFFC0000
00003FFFF80000
00003FFFF00000
00001FFFE00000
00001FFFE00000
00003FFFC00000
00007FFFE00000
0000FFFFE00000
0001FFFFF00000
0003FFFFF00000
0007FFFFF80000
000FFFFFF80000
000FFFFFFC0000
001FFF3FFC0000
003FFE3FFE0000
007FFC1FFE0000
00FFF81FFF0000
01FFF01FFF0000
03FFE00FFF8000
07FFE00FFF8000
0FFFC007FFC000
0FFF8007FFC000
1FFF0003FFE000
3FFE0003FFE000
FFFC0001FFF000
ENDCHAR
STARTCHAR y
ENCODING 121
SWIDTH 606 0
DWIDTH 47 0
BBX 45 56 1 -16
BITMAP
007FF800FFF8
00FFF800FFF8
00FFF800FFF8
00FFF000FFF0
00FFF000FFF0
01FFF001FFF0
01FFF001FFF0
01FFF001FFF0
01FFE001FFE0
01FFE001FFE0
03FFE003FFE0
03FFE003FFE0
03FFC003FFC0
03FFC003FFC0
03FFC003FFC0
07FFC007FFC0
07FFC007FFC0
07FF8007FF80
07FF8007FF80
0FFF800FFF80
0FFF800FFF80
0FFF800FFF80
0FFF000FFF00
0FFF001FFF00
1FFF001FFF00
1FFF001FFF00
1FFF003FFE00
1FFF003FFE00
1FFF007FFE00
1FFFC7FFFE00
3FFFFFFFFE00
3FFFFFFFFC00
3FFFFFFFFC00
1FFFFFFFFC00
1FFFFFFFFC00
1FFFFF7FFC00
0FFFFE7FF800
0FFFFC7FF800
03FFF0FFF800
007F00FFF800
000000FFF000
000000FFF000
000001FFF000
000001FFF000
000003FFE000
000007FFE000
3807FFFFC000
7FFFFFFFC000
7FFFFFFF8000
7FFFFFFF8000
7FFFFFFF0000
7FFFFFFE0000
FFFFFFFC0000
FFFFFFF00000
FFFFFFC00000
1FFFFC000000
ENDCHAR
STARTCHAR z
ENCODING 122
SWIDTH 535 0
DWIDTH 42 0
BBX 43 40 -1 0
BITMAP
007FFFFFFFE0
007FFFFFFFE0
007FFFFFFFE0
007FFFFFFFE0
007FFFFFFFE0
00FFFFFFFFC0
00FFFFFFFFC0
00FFFFFFFFC0
00FFFFFFFFC0
00FFFFFFFF80
000000FFFF00
000001FFFE00
000003FFFC00
000007FFF800
00000FFFF000
00003FFFE000
00007FFFC000
0000FFFF8000
0001FFFF0000
0003FFFE0000
0007FFF80000
000FFFF00000
001FFFE00000
003FFFC00000
007FFF800000
00FFFF000000
01FFFE000000
03FFFC000000
07FFF8000000
0FFFF0000000
1FFFE0000000
3FFFFFFFF800
3FFFFFFFF800
7FFFFFFFF000
7FFFFFFFF000
7FFFFFFFF000
7FFFFFFFF000
7FFFFFFFF000
FFFFFFFFE000
FFFFFFFFE000
ENDCHAR
STARTCHAR braceleft
ENCODING 123
SWIDTH 365 0
DWIDTH 28 0
BBX 33 70 2 -12
BITMAP
000000FF80
000003FE00
00000FFC00
00001FF800
00007FF000
0000FFE000
0000FFC000
0001FFC000
0003FF8000
0003FF0000
0007FF0000
0007FF0000
000FFE0000
000FFE0000
000FFE0000
000FFE0000
001FFC0000
001FFC0000
001FFC0000
001FFC0000
001FFC0000
003FF80000
003FF80000
003FF80000
003FF80000
007FF00000
007FF00000
007FE00000
00FFE00000
01FFC00000
03FF800000
0FFF000000
7FFE000000
7FF8000000
7FC0000000
7FE0000000
FFF8000000
FFFC000000
1FFE000000
0FFF000000
07FF000000
07FF000000
07FF000000
07FF000000
07FF000000
07FF000000
07FF000000
07FF000000
07FF000000
0FFE000000
0FFE000000
0FFE000000
0FFE000000
1FFE000000
1FFC000000
1FFC000000
1FFC000000
1FFC000000
1FFC000000
1FFC000000
1FFC000000
0FFC000000
0FFC000000
0FFE000000
07FE000000
07FF000000
03FF000000
01FF800000
00FF800000
003FE00000
ENDCHAR
STARTCHAR bar
ENCODING 124
SWIDTH 301 0
DWIDTH 23 0
BBX 25 71 0 -13
BITMAP
0003FF80
0003FF80
0003FF80
0003FF00
0003FF00
0007FF00
0007FF00
0007FF00
0007FE00
0007FE00
000FFE00
000FFE00
000FFE00
000FFC00
001FFC00
001FFC00
001FFC00
001FF800
001FF800
003FF800
003FF800
003FF800
003FF000
003FF000
007FF000
007FF000
007FF000
007FE000
007FE000
00FFE000
00FFE000
00FFC000
00FFC000
01FFC000
01FFC000
01FFC000
01FF8000
01FF8000
03FF8000
03FF8000
03FF8000
03FF0000
03FF0000
07FF0000
07FF0000
07FF0000
07FE0000
0FFE0000
0FFE0000
0FFE0000
0FFC0000
0FFC0000
1FFC0000
1FFC0000
1FFC0000
1FF80000
1FF80000
3FF80000
3FF80000
3FF80000
3FF00000
7FF00000
7FF00000
7FF00000
7FE00000
7FE00000
FFE00000
FFE00000
FFE00000
FFC00000
FFC00000
ENDCHAR
STARTCHAR braceright
ENCODING 125
SWIDTH 365 0
DWIDTH 28 0
BBX 34 70 -6 -12
BITMAP
0001FF0000
00007FC000
00007FE000
00003FF000
00003FF000
00001FF800
00001FF800
00001FFC00
00000FFC00
00000FFC00
00000FFE00
00000FFE00
00000FFE00
00000FFE00
00000FFC00
00001FFC00
00001FFC00
00001FFC00
00001FFC00
00003FF800
00003FF800
00003FF800
00003FF800
00003FF800
00007FF000
00007FF000
00007FF000
00007FF000
00007FF000
00003FF800
00003FF800
00001FFE00
00000FFFC0
000007FF80
000000FF80
000001FF80
00000FFF80
00003FFF00
00007FF800
0000FFE000
0001FFC000
0001FF8000
0003FF8000
0003FF8000
0007FF0000
0007FF0000
0007FF0000
0007FF0000
000FFE0000
000FFE0000
000FFE0000
000FFE0000
001FFC0000
001FFC0000
001FFC0000
001FFC0000
001FF80000
003FF80000
003FF80000
003FF00000
007FF00000
007FE00000
00FFE00000
01FFC00000
03FF800000
07FF000000
0FFE000000
1FF8000000
3FE0000000
FF80000000
ENDCHAR
STARTCHAR asciitilde
ENCODING 126
SWIDTH 499 0
DWIDTH 39 0
BBX 34 12 3 18
BITMAP
0000001FC0
00F8001F80
07FFC01F80
0FFFFC3F80
1FFFFFFF80
3FFFFFFF00
3FFFFFFF00
3FFFFFFE00
7FFFFFFE00
7E03FFFC00
7E003FF800
FE00000000
ENDCHAR
STARTCHAR uni00A0
ENCODING 160
SWIDTH 258 0
DWIDTH 20 0
BBX 1 1 0 0
BITMAP
00
ENDCHAR
STARTCHAR exclamdown
ENCODING 161
SWIDTH 314 0
DWIDTH 24 0
BBX 25 54 -1 -14
BITMAP
001FFF80
001FFF00
001FFF00
001FFF00
001FFF00
003FFF00
003FFE00
003FFE00
003FFE00
007FFE00
007FFE00
00000000
00000000
00000000
00000000
00000000
00000000
00000000
003FE000
007FE000
007FE000
007FE000
00FFC000
00FFC000
00FFC000
01FFC000
01FFC000
01FFC000
03FFC000
03FFC000
03FF8000
03FF8000
07FF8000
07FF8000
07FF8000
0FFF8000
0FFF8000
0FFF8000
1FFF0000
1FFF0000
1FFF0000
1FFF0000
3FFF0000
3FFF0000
3FFF0000
3FFE0000
7FFE0000
7FFE0000
7FFE0000
7FFE0000
FFFE0000
FFFC0000
FFFC0000
FFFC0000
ENDCHAR
STARTCHAR cent
ENCODING 162
SWIDTH 468 0
DWIDTH 37 0
BBX 34 55 3 -1
BITMAP
00000FF800
00001FF800
00001FF000
00001FF000
00001FF000
00001FF000
0003FFFE00
001FFFFFC0
007FFFFFC0
00FFFFFFC0
01FFFFFFC0
01FFFFFF80
03FFFFFF80
07FFFFFF80
07FFFFFF80
07FFFFFF00
0FFFFF8000
0FFFFF8000
1FFFFF8000
1FFFFF8000
1FFFFF8000
1FFFFF0000
3FFFFF0000
3FFFFF0000
3FFFFF0000
3FFFFE0000
7FFFFE0000
7FFFFE0000
7FFFFE0000
7FFFFE0000
7FFFFC0000
FFFFFC0000
FFFFFC0000
FFFFFC0000
FFFFFC0000
FFFFF80000
FFFFF80000
FFFFF80000
FFFFF83000
FFFFFFF000
FFFFFFE000
FFFFFFE000
7FFFFFE000
7FFFFFE000
3FFFFFE000
1FFFFFC000
0FFFFFC000
03FFFFC000
007FF00000
007FC00000
007FC00000
007FC00000
007FC00000
00FFC00000
00FF800000
ENDCHAR
STARTCHAR sterling
ENCODING 163
SWIDTH 611 0
DWIDTH 48 0
BBX 51 54 0 0
BITMAP
00000007FFFF00
0000003FFFFFE0
000001FFFFFFC0
000003FFFFFFC0
00000FFFFFFFC0
00001FFFFFFFC0
00003FFFFFFF80
00003FFFFFFF80
00007FFFFFFF80
0000FFFFFFFF80
0000FFFFE00780
0001FFFE000000
0001FFF8000000
0001FFF8000000
0003FFF0000000
0003FFF0000000
0003FFE0000000
0007FFE0000000
0007FFE0000000
0007FFC0000000
0007FFC0000000
000FFFC0000000
03FFFFFFFF8000
03FFFFFFFF0000
03FFFFFFFF0000
03FFFFFFFF0000
07FFFFFFFF0000
07FFFFFFFE0000
07FFFFFFFE0000
07FFFFFFFE0000
07FFFFFFFE0000
083FFF00000000
003FFF00000000
003FFE00000000
003FFE00000000
007FFE00000000
007FFE00000000
007FFE00000000
007FFC00000000
007FFC00000000
00FFFC00000000
00FFFC00000000
00FFF800000000
00FFF800000000
3FFFFFFFFFC000
7FFFFFFFFFC000
7FFFFFFFFFC000
7FFFFFFFFFC000
7FFFFFFFFF8000
7FFFFFFFFF8000
FFFFFFFFFF8000
FFFFFFFFFF8000
FFFFFFFFFF0000
FFFFFFFFFF0000
ENDCHAR
STARTCHAR currency
ENCODING 164
SWIDTH 680 0
DWIDTH 53 0
BBX 55 54 0 0
BITMAP
00008000000040
0001C0000000E0
0003E0000001F0
0007E0000003F0
001FF0000007F8
003FF800000FFC
007FFCFFFE3FFE
003FFFFFFFFFFC
001FFFFFFFFFF8
000FFFFFFFFFF0
000FFFFFFFFFE0
0007FFFFFFFFC0
0003FFFFFFFF80
0007FFFFFFFF00
000FFFFFFFFF00
000FFFFFFFFF00
000FFF801FFF00
001FFF001FFF00
001FFF001FFF00
001FFE001FFF00
001FFE001FFF00
003FFE001FFF00
003FFE001FFF00
003FFC001FFE00
003FFC001FFE00
007FFC003FFE00
007FFC003FFE00
007FF8003FFE00
007FF8003FFC00
007FF8003FFC00
00FFF8007FFC00
00FFF8007FFC00
00FFF0007FF800
00FFF0007FF800
00FFF000FFF800
01FFF000FFF800
01FFF001FFF000
01FFF801FFF000
01FFFE0FFFF000
01FFFFFFFFE000
01FFFFFFFFE000
01FFFFFFFFC000
03FFFFFFFFE000
07FFFFFFFFE000
0FFFFFFFFFF000
1FFFFFFFFFF800
3FFFFFFFFFFC00
FFFDFFFFBFFC00
7FF800001FFE00
3FE000000FF800
1FC000000FF000
0F80000007E000
07000000038000
02000000010000
ENDCHAR
STARTCHAR yen
ENCODING 165
SWIDTH 639 0
DWIDTH 50 0
BBX 52 54 3 0
BITMAP
03FFE00001FFF0
03FFE00003FFF0
03FFE00003FFE0
01FFF00007FFC0
01FFF0000FFF80
01FFF0000FFF80
01FFF0001FFF00
00FFF0003FFE00
00FFF8003FFE00
00FFF8007FFC00
00FFF800FFF800
007FF800FFF800
007FFC01FFF000
007FFC03FFE000
003FFC03FFC000
003FFC07FFC000
003FFC0FFF8000
003FFE0FFF0000
001FFE1FFF0000
0FFFFFFFFFFC00
0FFFFFFFFFFC00
1FFFFFFFFFF800
1FFFFFFFFFF800
1FFFFFFFFFF800
1FFFFFFFFFF800
0007FFFFE00000
0007FFFFC00000
0007FFFF800000
0003FFFF800000
0003FFFF000000
0003FFFE000000
7FFFFFFFFFE000
7FFFFFFFFFE000
7FFFFFFFFFE000
7FFFFFFFFFE000
FFFFFFFFFFE000
FFFFFFFFFFC000
FFFFFFFFFFC000
0003FFF0000000
0003FFF0000000
0003FFE0000000
0007FFE0000000
0007FFE0000000
0007FFE0000000
0007FFC0000000
0007FFC0000000
000FFFC0000000
000FFFC0000000
000FFFC0000000
000FFF80000000
001FFF80000000
001FFF80000000
001FFF80000000
001FFF80000000
ENDCHAR
STARTCHAR brokenbar
ENCODING 166
SWIDTH 301 0
DWIDTH 23 0
BBX 26 71 0 -13
BITMAP
0001FFC0
0001FF80
0003FF80
0003FF80
0003FF80
0003FF00
0003FF00
0007FF00
0007FF00
0007FF00
0007FE00
0007FE00
000FFE00
000FFE00
000FFE00
000FFC00
001FFC00
001FFC00
001FFC00
001FF800
001FF800
003FF800
003FF800
003FF800
003FF000
003FF000
007FF000
007FF000
00000000
00000000
00000000
00000000
00000000
00000000
00000000
00000000
00000000
00000000
00000000
00000000
00000000
00000000
00000000
03FF0000
07FF0000
07FF0000
07FF0000
07FE0000
07FE0000
0FFE0000
0FFE0000
0FFE0000
0FFC0000
0FFC0000
1FFC0000
1FFC0000
1FFC0000
1FF80000
3FF80000
3FF80000
3FF80000
3FF00000
3FF00000
7FF00000
7FF00000
7FF00000
7FE00000
7FE00000
FFE00000
FFE00000
FFE00000
ENDCHAR
STARTCHAR section
ENCODING 167
SWIDTH 691 0
DWIDTH 54 0
BBX 48 67 3 -13
BITMAP
000001FFFFF8
00000FFFFFFF
00003FFFFFFE
00007FFFFFFE
0000FFFFFFFE
0001FFFFFFFE
0003FFFFFFFC
0003FFFFFFFC
0007FFFFFFFC
0007FFFFFFFC
000FFFC00000
000FFF800000
000FFF000000
000FFF000000
001FFF000000
001FFF000000
001FFFC00000
001FFFFC0000
001FFFFF8000
003FFFFFF000
01FFFFFFFE00
03FFFFFFFFC0
07FFFFFFFFF0
0FFFFFFFFFFC
1FFFFFFFFFFE
1FFFFFFFFFFE
3FFE1FFFFFFF
3FFC03FFFFFF
3FF8007FFFFF
7FF80007FFFF
7FF80000FFFF
7FF800003FFF
7FF800001FFF
FFF000000FFF
FFF800000FFF
FFFC00000FFE
FFFF00001FFE
FFFFE0001FFE
FFFFFC001FFE
FFFFFF803FFC
FFFFFFF03FFC
7FFFFFFFFFF8
7FFFFFFFFFF8
3FFFFFFFFFF0
0FFFFFFFFFE0
03FFFFFFFFC0
007FFFFFFF80
000FFFFFFE00
0001FFFFF800
00003FFFF800
000003FFF800
000000FFF800
000000FFF800
000000FFF800
000000FFF000
000000FFF000
000003FFF000
3FFFFFFFF000
3FFFFFFFE000
3FFFFFFFE000
3FFFFFFFC000
3FFFFFFF8000
7FFFFFFF8000
7FFFFFFF0000
7FFFFFFC0000
7FFFFFF00000
1FFFFF800000
ENDCHAR
STARTCHAR dieresis
ENCODING 168
SWIDTH 343 0
DWIDTH 27 0
BBX 28 9 6 46
BITMAP
7FF03FF0
7FE03FF0
7FE03FF0
7FE07FF0
FFE07FE0
FFC07FE0
FFC07FE0
FFC07FE0
FFC0FFC0
ENDCHAR
STARTCHAR copyright
ENCODING 169
SWIDTH 747 0
DWIDTH 58 0
BBX 51 55 5 -1
BITMAP
00003FFFFFC000
0001FFFFFFFC00
0007FFFFFFFF00
001FFFFFFFFF80
003FFFE03FFFC0
007F8000001FC0
007E00000007E0
00FC00000007E0
00F800000003E0
01F800000003E0
01F000000003E0
03F000000003E0
03E000040003E0
03E001FFFC03E0
03E007FFF803E0
07C00FFFF803E0
07C01FFFF803E0
07C03FFFF803E0
07803FE01007C0
0F807F800007C0
0F807F800007C0
0F807F000007C0
0F80FF000007C0
1F00FF00000F80
1F00FE00000F80
1F00FE00000F80
1F01FE00000F80
3E01FE00000F80
3E01FE00001F00
3E01FC00001F00
3E03FC00001F00
3E03FC00001F00
7C03FC00001F00
7C03FC00003E00
7C03FC00003E00
7C03FE00003E00
7C03FFFF803E00
F803FFFF007C00
F801FFFF007C00
F801FFFF007C00
F8007FFF007C00
F8001FFE00F800
F800000000F800
F800000001F800
F800000001F000
F800000003F000
FC00000003E000
FC00000007E000
7E0000001FC000
7FE00001FF8000
3FFFFFFFFF0000
1FFFFFFFFE0000
07FFFFFFFC0000
01FFFFFFE00000
00003FF0000000
ENDCHAR
STARTCHAR ordfeminine
ENCODING 170
SWIDTH 423 0
DWIDTH 33 0
BBX 32 30 5 24
BITMAP
007FC1FF
01FFF1FF
03FFFBFE
07FFFFFE
0FFFFFFE
0FFFFFFE
1FFFFFFE
1FFF7FFC
1FF80FFC
3FF00FFC
3FF00FFC
3FE00FFC
7FE00FF8
7FE00FF8
7FE00FF8
7FC00FF8
7FC01FF0
FFC01FF0
FFC01FF0
FFC03FF0
FFC03FF0
FFC07FE0
FFFFFFE0
FFFFFFE0
FFFFFFE0
FFFFFFE0
7FFFFFC0
7FFF7FC0
1FFC7FC0
07E00000
ENDCHAR
STARTCHAR guillemotleft
ENCODING 171
SWIDTH 507 0
DWIDTH 40 0
BBX 37 32 3 8
BITMAP
0007FC0FF8
000FF81FF0
001FF01FE0
001FF03FE0
003FE07FC0
007FC0FF80
00FF81FF80
01FF83FF00
01FF03FE00
03FE07FC00
07FE0FFC00
0FFC1FF800
1FF83FF000
1FF03FE000
3FF07FE000
7FE0FFC000
FFC1FF8000
7FE0FFC000
7FE0FFC000
3FE07FC000
3FE07FE000
1FF03FE000
1FF03FE000
1FF03FF000
0FF81FF000
0FF81FF000
07F80FF000
07FC0FF800
03FC07F800
03FC07F800
01FE03FC00
01FE03FC00
ENDCHAR
STARTCHAR logicalnot
ENCODING 172
SWIDTH 545 0
DWIDTH 43 0
BBX 33 20 5 4
BITMAP
3FFFFFFF80
7FFFFFFF80
7FFFFFFF80
7FFFFFFF00
7FFFFFFF00
7FFFFFFF00
FFFFFFFF00
FFFFFFFF00
FFFFFFFE00
000003FE00
000003FE00
000003FE00
000007FE00
000007FC00
000007FC00
000007FC00
000007FC00
00000FF800
00000FF800
00000FF800
ENDCHAR
STARTCHAR uni00AD
ENCODING 173
SWIDTH 379 0
DWIDTH 30 0
BBX 23 10 4 17
BITMAP
3FFFFE
7FFFFE
7FFFFE
7FFFFE
7FFFFC
7FFFFC
FFFFFC
FFFFFC
FFFFFC
FFFFF8
ENDCHAR
STARTCHAR registered
ENCODING 174
SWIDTH 747 0
DWIDTH 58 0
BBX 51 55 5 -1
BITMAP
00001FFFFFE000
0001FFFFFFFC00
0007FFFFFFFF00
001FFFFFFFFF80
003FFFF9FFFFC0
003FC000001FC0
007E00000007E0
00FC00000007E0
00F800000003E0
01F800000003E0
01F000000003E0
01F000000003E0
03E000000003E0
03E07FFFF003E0
03E07FFFFC03E0
07C07FFFFC03E0
07C07FFFFE03E0
07C0FFFFFE03E0
0F80FFFFFE07C0
0F80FE01FE07C0
0F80FE01FE07C0
0F80FE01FE07C0
0F81FE01FC07C0
1F01FC01FC0F80
1F01FC03FC0F80
1F01FC07F80F80
1F01FFFFF80F80
3E03FFFFF00F80
3E03FFFFF01F00
3E03FFFFE01F00
3E03FFFF801F00
3E07F83F801F00
7C07F03F803F00
7C07F03F803E00
7C07F03FC03E00
7C07F01FC03E00
7C0FF01FC03E00
F80FE01FC07C00
F80FE01FC07C00
F80FE01FC07C00
F80FE01FE0FC00
F81FE01FE0F800
F800000000F800
F800000001F800
F800000001F000
F800000003F000
FC00000007E000
FC0000000FE000
7E0000001FC000
7FE00001FF8000
3FFFFFFFFF0000
1FFFFFFFFE0000
0FFFFFFFF80000
01FFFFFFC00000
0000FF80000000
ENDCHAR
STARTCHAR macron
ENCODING 175
SWIDTH 347 0
DWIDTH 27 0
BBX 28 8 6 46
BITMAP
7FFFFFF0
7FFFFFF0
7FFFFFF0
7FFFFFF0
FFFFFFE0
FFFFFFE0
FFFFFFE0
FFFFFFE0
ENDCHAR
STARTCHAR degree
ENCODING 176
SWIDTH 402 0
DWIDTH 31 0
BBX 25 23 8 31
BITMAP
01FFF800
07FFFE00
0FFFFF00
1FFFFF00
1FFFFF80
3FE07F80
3FC07F80
3F807F00
7F807F00
7F807F00
7F007F00
7F00FF00
7F00FF00
FF00FE00
FF00FE00
FE01FE00
FF01FE00
FF83FC00
FFFFFC00
FFFFF800
7FFFF800
3FFFE000
0FFF8000
ENDCHAR
STARTCHAR plusminus
ENCODING 177
SWIDTH 546 0
DWIDTH 43 0
BBX 39 46 2 0
BITMAP
00000FFC00
00000FFC00
00000FF800
00000FF800
00001FF800
00001FF800
00001FF800
00001FF000
00001FF000
00003FF000
00003FF000
01FFFFFFFE
01FFFFFFFC
01FFFFFFFC
03FFFFFFFC
03FFFFFFFC
03FFFFFFF8
03FFFFFFF8
07FFFFFFF8
07FFFFFFF8
0000FFC000
0000FF8000
0000FF8000
0001FF8000
0001FF8000
0001FF0000
0001FF0000
0003FF0000
0003FF0000
0003FF0000
0003FE0000
0000000000
0000000000
0000000000
0000000000
0000000000
0000000000
7FFFFFFF80
7FFFFFFF80
7FFFFFFF80
7FFFFFFF00
7FFFFFFF00
FFFFFFFF00
FFFFFFFF00
FFFFFFFE00
FFFFFFFE00
ENDCHAR
STARTCHAR uni00B2
ENCODING 178
SWIDTH 352 0
DWIDTH 27 0
BBX 27 30 6 33
BITMAP
003FFC00
01FFFF80
03FFFFC0
03FFFFE0
03FFFFE0
03FFFFE0
02001FE0
00001FE0
00001FE0
00001FE0
00001FC0
00007FC0
0001FFC0
000FFF80
007FFF00
01FFFE00
07FFF800
0FFFE000
1FFF0000
1FF80000
3FE00000
3FC00000
3F800000
7F800000
7FFFFF00
7FFFFE00
7FFFFE00
7FFFFE00
FFFFFE00
FFFFFC00
ENDCHAR
STARTCHAR uni00B3
ENCODING 179
SWIDTH 349 0
DWIDTH 27 0
BBX 27 30 5 33
BITMAP
007FF800
03FFFF00
03FFFFC0
03FFFFC0
03FFFFE0
07FFFFE0
04003FE0
00001FE0
00001FE0
00001FE0
00003FC0
00007FC0
007FFF80
007FFF00
007FFC00
00FFFC00
00FFFE00
00FFFF00
0000FF00
00007F00
00007F00
0000FF00
0000FF00
0001FF00
7FFFFF00
7FFFFE00
7FFFFE00
7FFFFC00
FFFFF000
FFFFC000
ENDCHAR
STARTCHAR acute
ENCODING 180
SWIDTH 256 0
DWIDTH 20 0
BBX 23 11 5 45
BITMAP
007FFE
007FF8
00FFF0
01FFE0
03FF80
07FF00
0FFE00
1FFC00
3FF800
7FE000
FFC000
ENDCHAR
STARTCHAR uni00B5
ENCODING 181
SWIDTH 603 0
DWIDTH 47 0
BBX 47 55 -2 -15
BITMAP
001FFC000FFE
001FFC000FFE
001FFC000FFE
001FFC000FFC
001FF8001FFC
003FF8001FFC
003FF8001FFC
003FF8001FFC
003FF8001FF8
007FF0003FF8
007FF0003FF8
007FF0003FF8
007FF0003FF8
007FE0007FF0
00FFE0007FF0
00FFE0007FF0
00FFE0007FF0
00FFE0007FE0
00FFC000FFE0
01FFC000FFE0
01FFC000FFE0
01FFC000FFE0
01FFC000FFC0
03FF8001FFC0
03FF8001FFC0
03FF8001FFC0
03FF8003FFC0
03FF8003FF80
07FF8003FF80
07FF8007FF80
07FF800FFF80
07FFE07FFF00
07FFFFFFFF00
0FFFFFFFFF00
0FFFFFFFFF00
0FFFFFF7FF00
0FFFFFE7FE00
1FFFFFC7FE00
1FFFFF87FE00
1FFDFC0FFE00
1FFC00000000
1FFC00000000
3FF800000000
3FF800000000
3FF800000000
3FF800000000
3FF000000000
7FF000000000
7FF000000000
7FF000000000
7FF000000000
FFE000000000
FFE000000000
FFE000000000
FFE000000000
ENDCHAR
STARTCHAR paragraph
ENCODING 182
SWIDTH 637 0
DWIDTH 50 0
BBX 46 65 5 -11
BITMAP
000007FF83FC
000FFFFF83FC
007FFFFF07F8
00FFFFFF07F8
01FFFFFF07F8
03FFFFFF07F8
07FFFFFE07F8
07FFFFFE0FF0
0FFFFFFE0FF0
0FFFFFFE0FF0
0FFFFFFE0FF0
1FFFFFFC0FF0
1FFFFFFC1FE0
1FFFFFFC1FE0
1FFFFFFC1FE0
3FFFFFFC1FE0
3FFFFFF83FE0
3FFFFFF83FC0
3FFFFFF83FC0
3FFFFFF83FC0
7FFFFFF03FC0
7FFFFFF07F80
7FFFFFF07F80
7FFFFFF07F80
7FFFFFF07F80
FFFFFFE07F80
FFFFFFE0FF00
FFFFFFE0FF00
FFFFFFE0FF00
FFFFFFE0FF00
FFFFFFC1FF00
FFFFFFC1FE00
7FFFFFC1FE00
7FFFFFC1FE00
3FFFFFC1FE00
0FFFFF83FC00
001FFF83FC00
00007F83FC00
00007F83FC00
0000FF03FC00
0000FF07F800
0000FF07F800
0000FF07F800
0001FF07F800
0001FE0FF800
0001FE0FF000
0001FE0FF000
0001FE0FF000
0003FE0FF000
0003FC1FE000
0003FC1FE000
0003FC1FE000
0003FC1FE000
0007F81FE000
0007F83FC000
0007F83FC000
0007F83FC000
0007F83FC000
000FF03FC000
000FF07F8000
000FF07F8000
000FF07F8000
001FF07F8000
001FE0FF8000
001FE0FF0000
ENDCHAR
STARTCHAR periodcentered
ENCODING 183
SWIDTH 299 0
DWIDTH 23 0
BBX 15 11 5 18
BITMAP
3FFE
3FFE
7FFE
7FFE
7FFC
7FFC
7FFC
FFFC
FFF8
FFF8
FFF8
ENDCHAR
STARTCHAR cedilla
ENCODING 184
SWIDTH 184 0
DWIDTH 14 0
BBX 17 16 -7 -15
BITMAP
007F80
00FF80
01FF00
01FF00
03FF00
03FE00
07FE00
0FFC00
0FFC00
1FFC00
1FF800
3FF800
7FF000
7FF000
FFF000
FFE000
ENDCHAR
STARTCHAR uni00B9
ENCODING 185
SWIDTH 230 0
DWIDTH 18 0
BBX 15 30 8 33
BITMAP
003E
00FE
07FE
1FFE
7FFC
7FFC
7FFC
FFFC
FFFC
E3F8
87F8
07F8
07F8
07F8
07F0
0FF0
0FF0
0FF0
0FE0
0FE0
1FE0
1FE0
1FE0
1FC0
3FC0
3FC0
3FC0
3FC0
3F80
7F80
ENDCHAR
STARTCHAR ordmasculine
ENCODING 186
SWIDTH 443 0
DWIDTH 35 0
BBX 30 30 7 24
BITMAP
007FFF80
01FFFFE0
07FFFFF0
07FFFFF8
0FFFFFF8
1FFFFFF8
1FFFFFFC
3FF00FFC
3FF00FFC
3FE00FF8
3FE00FF8
7FE00FF8
7FC00FF8
7FC00FF8
7FC01FF8
7FC01FF0
FF801FF0
FF801FF0
FF801FF0
FF803FE0
FF803FE0
FF807FE0
FFE0FFC0
FFFFFFC0
FFFFFFC0
FFFFFF80
7FFFFF00
3FFFFE00
1FFFF800
00FF8000
ENDCHAR
STARTCHAR guillemotright
ENCODING 187
SWIDTH 507 0
DWIDTH 40 0
BBX 36 32 2 8
BITMAP
03FC03F800
01FE03FC00
01FE03FC00
00FF01FE00
00FF01FE00
00FF81FF00
007F80FF00
007FC0FF80
007FC0FF80
007FC0FF80
003FE07FC0
003FE07FC0
003FF07FE0
001FF03FE0
001FF83FF0
001FF83FF0
001FF83FF0
001FF03FE0
003FF07FE0
007FE0FFC0
00FFC1FF80
00FF81FF00
01FF03FE00
03FF07FE00
07FE0FFC00
07FC0FF800
0FF81FF000
1FF03FE000
1FF03FE000
3FE07FC000
7FC0FF8000
FF81FF0000
ENDCHAR
STARTCHAR onequarter
ENCODING 188
SWIDTH 701 0
DWIDTH 55 0
BBX 54 54 -1 0
BITMAP
00007C000007FC
0001FC00000FF8
0007FC00001FF0
003FFC00001FE0
00FFFC00003FC0
00FFF800007F80
00FFF80000FF80
01FFF80001FF00
01FFF80003FE00
01C7F80007FC00
0107F00007F800
000FF0000FF000
000FF0001FF000
000FF0003FE000
000FE0007FC000
001FE000FF8000
001FE001FF0000
001FE001FE0000
001FE003FC0000
001FC007FC0000
003FC00FF80000
003FC01FF00000
003FC03FE00000
003FC03FC00000
003F807F80FF80
007F80FF01FF00
007F81FF01FE00
007F83FE03FE00
007F07FC07FC00
00FF0FF80FF800
00000FF00FF000
00001FE01FE000
00003FE03FE000
00007FC03FC000
0000FF807F8000
0001FF00FF07E0
0003FE01FF07C0
0003FC01FE0FC0
0007F803FC1FC0
000FF807F81FC0
001FF00FF03F80
003FE00FF03F80
007FC01FFFFFF8
007F801FFFFFF0
00FF003FFFFFF0
01FE003FFFFFF0
03FE003FFFFFF0
07FC003FFFFFF0
0FF8000000FF00
1FF0000000FE00
1FE0000001FE00
3FC0000001FE00
7FC0000001FE00
FF80000001FE00
ENDCHAR
STARTCHAR onehalf
ENCODING 189
SWIDTH 744 0
DWIDTH 58 0
BBX 58 54 -1 0
BITMAP
00007C000007FC00
0001FC00000FF800
0007FC00001FF000
003FFC00001FE000
00FFFC00003FC000
00FFF800007F8000
00FFF80000FF8000
01FFF80001FF0000
01FFF80003FE0000
01C7F80007FC0000
0107F00007F80000
000FF0000FF00000
000FF0001FF00000
000FF0003FE00000
000FE0007FC00000
001FE000FF800000
001FE001FF000000
001FE001FE000000
001FE003FC000000
001FC007FC000000
003FC00FF8000000
003FC01FF0000000
003FC03FE0000000
003FC03FC0000000
003F807F807FF800
007F80FF07FFFF00
007F81FF07FFFF80
007F83FE07FFFF80
007F07FC07FFFFC0
00FF0FF80FFFFFC0
00000FF008007FC0
00001FE000003FC0
00003FE000003F80
00007FC000003F80
0000FF8000007F80
0001FF000000FF80
0003FE000007FF00
0003FC00003FFF00
0007F80000FFFE00
000FF80007FFFC00
001FF0001FFFF000
003FE0003FFF8000
007FC0003FFE0000
007F80007FF00000
00FF00007F800000
01FE00007F000000
03FE0000FF000000
07FC0000FF000000
0FF80000FFFFFC00
1FF00000FFFFFC00
1FE00001FFFFFC00
3FC00001FFFFF800
7FC00001FFFFF800
FF800001FFFFF800
ENDCHAR
STARTCHAR threequarters
ENCODING 190
SWIDTH 820 0
DWIDTH 64 0
BBX 59 54 3 0
BITMAP
007FFC0000003FE0
03FFFF8000007FC0
03FFFFC000007F80
03FFFFE00000FF00
03FFFFE00001FF00
03FFFFE00003FE00
04003FE00007FC00
00001FE0000FF800
00001FE0000FF000
00001FE0001FE000
00003FC0003FE000
00007FC0007FC000
007FFF8000FF8000
007FFF0001FF0000
007FFC0003FE0000
007FFC0003FC0000
00FFFE0007F80000
00FFFF000FF80000
0000FF001FF00000
00007F003FE00000
00007F007FC00000
0000FF00FF800000
0000FF00FF000000
0001FF01FE000000
7FFFFF03FE07FC00
7FFFFE07FC07F800
7FFFFE0FF80FF800
7FFFFC1FF01FF000
7FFFF81FE03FE000
FFFFC03FC03FC000
0000007FC07F8000
000000FF80FF8000
000001FF00FF0000
000003FE01FE0000
000007FC03FC0000
000007F807FC3F00
00000FF007F83F00
00001FF00FF07E00
00003FE01FE07E00
00007FC03FC0FE00
0000FF803FC0FE00
0001FF007F81FC00
0001FE00FFFFFFC0
0003FC00FFFFFFC0
0007FC00FFFFFF80
000FF801FFFFFF80
001FF001FFFFFF80
003FE001FFFFFF80
003FC0000007F800
007F80000007F800
00FF80000007F800
01FF0000000FF000
03FE0000000FF000
07FC0000000FF000
ENDCHAR
STARTCHAR questiondown
ENCODING 191
SWIDTH 464 0
DWIDTH 36 0
BBX 35 55 -1 -15
BITMAP
000003FFE0
000003FFE0
000003FFE0
000003FFE0
000007FFE0
000007FFC0
000007FFC0
000007FFC0
00000FFFC0
00000FFF80
00000FFF80
0000000000
0000000000
0000000000
0000000000
0000000000
0000000000
0000000000
00001FFE00
00001FFC00
00001FFC00
00001FFC00
00001FFC00
00003FF800
00003FF800
0000FFF800
0007FFF800
003FFFF000
00FFFFF000
03FFFFE000
07FFFFC000
0FFFFF8000
1FFFFE0000
1FFFF00000
3FFF800000
3FFF000000
7FFE000000
7FFC000000
7FFC000000
7FFC000000
FFFC000000
FFFC000000
FFFC000000
FFFE000040
FFFFFFFF80
FFFFFFFF80
FFFFFFFF80
FFFFFFFF80
7FFFFFFF00
7FFFFFFF00
3FFFFFFF00
1FFFFFFF00
0FFFFFFF00
01FFFFF800
0000800000
ENDCHAR
ENDFONT
